solid OpenSCAD_Model
  facet normal 0.999229 0.0392597 0
    outer loop
      vertex 5 10 8
      vertex 4.98459 10.3923 0
      vertex 4.98459 10.3923 8
    endloop
  endfacet
  facet normal 0.999229 0.0392597 0
    outer loop
      vertex 4.98459 10.3923 0
      vertex 5 10 8
      vertex 5 10 0
    endloop
  endfacet
  facet normal 0.117539 0.993068 -0
    outer loop
      vertex 0.782172 14.9384 0
      vertex 0.392295 14.9846 8
      vertex 0.782172 14.9384 8
    endloop
  endfacet
  facet normal 0.117539 0.993068 0
    outer loop
      vertex 0.392295 14.9846 8
      vertex 0.782172 14.9384 0
      vertex 0.392295 14.9846 0
    endloop
  endfacet
  facet normal -0.999229 -0.0392597 0
    outer loop
      vertex -4.98459 -10.3923 0
      vertex -5 -10 8
      vertex -5 -10 0
    endloop
  endfacet
  facet normal -0.999229 -0.0392597 0
    outer loop
      vertex -5 -10 8
      vertex -4.98459 -10.3923 0
      vertex -4.98459 -10.3923 8
    endloop
  endfacet
  facet normal 0 0 -1
    outer loop
      vertex 1.77984 -8.70687 0
      vertex 5 -10 0
      vertex 2.0098 -9.10518 0
    endloop
  endfacet
  facet normal -0 0 -1
    outer loop
      vertex 5 10 0
      vertex 2.15192 9.54259 0
      vertex 2.2 10 0
    endloop
  endfacet
  facet normal 0 0 -1
    outer loop
      vertex 1.47209 -8.36508 0
      vertex 5 -10 0
      vertex 1.77984 -8.70687 0
    endloop
  endfacet
  facet normal 0 0 -1
    outer loop
      vertex 5 10 0
      vertex 2.0098 9.10518 0
      vertex 2.15192 9.54259 0
    endloop
  endfacet
  facet normal 0 0 -1
    outer loop
      vertex 5 -10 0
      vertex 1.47209 -8.36508 0
      vertex 5 10 0
    endloop
  endfacet
  facet normal 0 0 -1
    outer loop
      vertex 5 10 0
      vertex 1.77984 8.70687 0
      vertex 2.0098 9.10518 0
    endloop
  endfacet
  facet normal 0 0 -1
    outer loop
      vertex 1.47209 8.36508 0
      vertex 5 10 0
      vertex 1.47209 -8.36508 0
    endloop
  endfacet
  facet normal 0 0 -1
    outer loop
      vertex 5 10 0
      vertex 1.47209 8.36508 0
      vertex 1.77984 8.70687 0
    endloop
  endfacet
  facet normal 0 0 -1
    outer loop
      vertex 1.1 -8.09474 0
      vertex 1.47209 8.36508 0
      vertex 1.47209 -8.36508 0
    endloop
  endfacet
  facet normal 0 0 -1
    outer loop
      vertex 1.1 -8.09474 0
      vertex 1.1 8.09474 0
      vertex 1.47209 8.36508 0
    endloop
  endfacet
  facet normal 0 0 -1
    outer loop
      vertex 0.679837 -7.90768 0
      vertex 1.1 8.09474 0
      vertex 1.1 -8.09474 0
    endloop
  endfacet
  facet normal 0 0 -1
    outer loop
      vertex 0.679837 -7.90768 0
      vertex 0.679837 7.90768 0
      vertex 1.1 8.09474 0
    endloop
  endfacet
  facet normal 0 0 -1
    outer loop
      vertex 0.229963 -7.81205 0
      vertex 0.679837 7.90768 0
      vertex 0.679837 -7.90768 0
    endloop
  endfacet
  facet normal 0 0 -1
    outer loop
      vertex 0.229963 -7.81205 0
      vertex 0.229963 7.81205 0
      vertex 0.679837 7.90768 0
    endloop
  endfacet
  facet normal 0 0 -1
    outer loop
      vertex -0.229963 -7.81205 0
      vertex 0.229963 7.81205 0
      vertex 0.229963 -7.81205 0
    endloop
  endfacet
  facet normal 0 0 -1
    outer loop
      vertex -0.229963 -7.81205 0
      vertex -0.229963 7.81205 0
      vertex 0.229963 7.81205 0
    endloop
  endfacet
  facet normal 0 0 -1
    outer loop
      vertex -0.679837 -7.90768 0
      vertex -0.229963 7.81205 0
      vertex -0.229963 -7.81205 0
    endloop
  endfacet
  facet normal 0 0 -1
    outer loop
      vertex -0.679837 -7.90768 0
      vertex -0.679837 7.90768 0
      vertex -0.229963 7.81205 0
    endloop
  endfacet
  facet normal 0 0 -1
    outer loop
      vertex -1.1 -8.09474 0
      vertex -0.679837 7.90768 0
      vertex -0.679837 -7.90768 0
    endloop
  endfacet
  facet normal 0 0 -1
    outer loop
      vertex -1.1 -8.09474 0
      vertex -1.1 8.09474 0
      vertex -0.679837 7.90768 0
    endloop
  endfacet
  facet normal 0 0 -1
    outer loop
      vertex -1.47209 -8.36508 0
      vertex -1.1 8.09474 0
      vertex -1.1 -8.09474 0
    endloop
  endfacet
  facet normal 0 0 -1
    outer loop
      vertex -1.47209 -8.36508 0
      vertex -1.47209 8.36508 0
      vertex -1.1 8.09474 0
    endloop
  endfacet
  facet normal 0 0 -1
    outer loop
      vertex -5 -10 0
      vertex -1.47209 -8.36508 0
      vertex -1.77984 -8.70687 0
    endloop
  endfacet
  facet normal -0 0 -1
    outer loop
      vertex -1.47209 -8.36508 0
      vertex -5 -10 0
      vertex -1.47209 8.36508 0
    endloop
  endfacet
  facet normal 0 0 -1
    outer loop
      vertex -5 -10 0
      vertex -1.77984 -8.70687 0
      vertex -2.0098 -9.10518 0
    endloop
  endfacet
  facet normal 0 0 -1
    outer loop
      vertex -5 10 0
      vertex -1.47209 8.36508 0
      vertex -5 -10 0
    endloop
  endfacet
  facet normal 0 0 -1
    outer loop
      vertex -5 -10 0
      vertex -2.0098 -9.10518 0
      vertex -2.15192 -9.54259 0
    endloop
  endfacet
  facet normal 0 0 -1
    outer loop
      vertex -1.47209 8.36508 0
      vertex -5 10 0
      vertex -1.77984 8.70687 0
    endloop
  endfacet
  facet normal 0 0 -1
    outer loop
      vertex -5 -10 0
      vertex -2.15192 -9.54259 0
      vertex -2.2 -10 0
    endloop
  endfacet
  facet normal 0 0 -1
    outer loop
      vertex -1.77984 8.70687 0
      vertex -5 10 0
      vertex -2.0098 9.10518 0
    endloop
  endfacet
  facet normal 0 0 -1
    outer loop
      vertex 2.2 -10 0
      vertex 5 -10 0
      vertex 4.98459 -10.3923 0
    endloop
  endfacet
  facet normal 0 0 -1
    outer loop
      vertex 2.15192 -9.54259 0
      vertex 5 -10 0
      vertex 2.2 -10 0
    endloop
  endfacet
  facet normal 0 0 -1
    outer loop
      vertex 2.15192 -10.4574 0
      vertex 4.98459 -10.3923 0
      vertex 4.93844 -10.7822 0
    endloop
  endfacet
  facet normal 0 0 -1
    outer loop
      vertex 2.0098 -9.10518 0
      vertex 5 -10 0
      vertex 2.15192 -9.54259 0
    endloop
  endfacet
  facet normal 0 0 -1
    outer loop
      vertex 2.15192 -10.4574 0
      vertex 4.93844 -10.7822 0
      vertex 4.86185 -11.1672 0
    endloop
  endfacet
  facet normal 0 0 -1
    outer loop
      vertex 5 10 0
      vertex 2.2 10 0
      vertex 4.98459 10.3923 0
    endloop
  endfacet
  facet normal 0 0 -1
    outer loop
      vertex 2.15192 -10.4574 0
      vertex 4.86185 -11.1672 0
      vertex 4.75528 -11.5451 0
    endloop
  endfacet
  facet normal 0 0 -1
    outer loop
      vertex 2.15192 10.4574 0
      vertex 4.98459 10.3923 0
      vertex 2.2 10 0
    endloop
  endfacet
  facet normal 0 0 -1
    outer loop
      vertex 2.0098 -10.8948 0
      vertex 4.75528 -11.5451 0
      vertex 4.6194 -11.9134 0
    endloop
  endfacet
  facet normal 0 0 -1
    outer loop
      vertex 4.98459 10.3923 0
      vertex 2.15192 10.4574 0
      vertex 4.93844 10.7822 0
    endloop
  endfacet
  facet normal 0 0 -1
    outer loop
      vertex 2.0098 -10.8948 0
      vertex 4.6194 -11.9134 0
      vertex 4.45503 -12.27 0
    endloop
  endfacet
  facet normal -0 0 -1
    outer loop
      vertex 4.93844 10.7822 0
      vertex 2.15192 10.4574 0
      vertex 4.86185 11.1672 0
    endloop
  endfacet
  facet normal 0 0 -1
    outer loop
      vertex 2.0098 -10.8948 0
      vertex 4.45503 -12.27 0
      vertex 4.2632 -12.6125 0
    endloop
  endfacet
  facet normal -0 0 -1
    outer loop
      vertex 4.86185 11.1672 0
      vertex 2.15192 10.4574 0
      vertex 4.75528 11.5451 0
    endloop
  endfacet
  facet normal 0 0 -1
    outer loop
      vertex 1.77984 -11.2931 0
      vertex 4.2632 -12.6125 0
      vertex 4.04508 -12.9389 0
    endloop
  endfacet
  facet normal 0 0 -1
    outer loop
      vertex 2.0098 10.8948 0
      vertex 4.75528 11.5451 0
      vertex 2.15192 10.4574 0
    endloop
  endfacet
  facet normal 0 0 -1
    outer loop
      vertex 1.77984 -11.2931 0
      vertex 4.04508 -12.9389 0
      vertex 3.80203 -13.2472 0
    endloop
  endfacet
  facet normal -0 0 -1
    outer loop
      vertex 4.75528 11.5451 0
      vertex 2.0098 10.8948 0
      vertex 4.6194 11.9134 0
    endloop
  endfacet
  facet normal 0 0 -1
    outer loop
      vertex 1.47209 -11.6349 0
      vertex 3.80203 -13.2472 0
      vertex 3.53553 -13.5355 0
    endloop
  endfacet
  facet normal -0 0 -1
    outer loop
      vertex 4.6194 11.9134 0
      vertex 2.0098 10.8948 0
      vertex 4.45503 12.27 0
    endloop
  endfacet
  facet normal 0 0 -1
    outer loop
      vertex 1.47209 -11.6349 0
      vertex 3.53553 -13.5355 0
      vertex 3.24724 -13.802 0
    endloop
  endfacet
  facet normal -0 0 -1
    outer loop
      vertex 4.45503 12.27 0
      vertex 2.0098 10.8948 0
      vertex 4.2632 12.6125 0
    endloop
  endfacet
  facet normal 0 0 -1
    outer loop
      vertex 1.47209 -11.6349 0
      vertex 3.24724 -13.802 0
      vertex 2.93893 -14.0451 0
    endloop
  endfacet
  facet normal 0 0 -1
    outer loop
      vertex 1.77984 11.2931 0
      vertex 4.2632 12.6125 0
      vertex 2.0098 10.8948 0
    endloop
  endfacet
  facet normal 0 0 -1
    outer loop
      vertex 1.1 -11.9053 0
      vertex 2.93893 -14.0451 0
      vertex 2.61249 -14.2632 0
    endloop
  endfacet
  facet normal -0 0 -1
    outer loop
      vertex 4.2632 12.6125 0
      vertex 1.77984 11.2931 0
      vertex 4.04508 12.9389 0
    endloop
  endfacet
  facet normal 0 0 -1
    outer loop
      vertex 1.1 -11.9053 0
      vertex 2.61249 -14.2632 0
      vertex 2.26995 -14.455 0
    endloop
  endfacet
  facet normal -0 0 -1
    outer loop
      vertex 4.04508 12.9389 0
      vertex 1.77984 11.2931 0
      vertex 3.80203 13.2472 0
    endloop
  endfacet
  facet normal 0 0 -1
    outer loop
      vertex 1.47209 11.6349 0
      vertex 3.80203 13.2472 0
      vertex 1.77984 11.2931 0
    endloop
  endfacet
  facet normal -0 0 -1
    outer loop
      vertex 4.98459 -10.3923 0
      vertex 2.15192 -10.4574 0
      vertex 2.2 -10 0
    endloop
  endfacet
  facet normal 0 0 -1
    outer loop
      vertex 4.75528 -11.5451 0
      vertex 2.0098 -10.8948 0
      vertex 2.15192 -10.4574 0
    endloop
  endfacet
  facet normal 0 0 -1
    outer loop
      vertex 1.1 -11.9053 0
      vertex 2.26995 -14.455 0
      vertex 1.91342 -14.6194 0
    endloop
  endfacet
  facet normal 0 0 -1
    outer loop
      vertex 4.2632 -12.6125 0
      vertex 1.77984 -11.2931 0
      vertex 2.0098 -10.8948 0
    endloop
  endfacet
  facet normal 0 0 -1
    outer loop
      vertex 0.679837 -12.0923 0
      vertex 1.91342 -14.6194 0
      vertex 1.54508 -14.7553 0
    endloop
  endfacet
  facet normal 0 0 -1
    outer loop
      vertex 3.80203 -13.2472 0
      vertex 1.47209 -11.6349 0
      vertex 1.77984 -11.2931 0
    endloop
  endfacet
  facet normal 0 0 -1
    outer loop
      vertex 0.679837 -12.0923 0
      vertex 1.54508 -14.7553 0
      vertex 1.16723 -14.8618 0
    endloop
  endfacet
  facet normal 0 0 -1
    outer loop
      vertex 2.93893 -14.0451 0
      vertex 1.1 -11.9053 0
      vertex 1.47209 -11.6349 0
    endloop
  endfacet
  facet normal 0 0 -1
    outer loop
      vertex 0.229963 -12.1879 0
      vertex 1.16723 -14.8618 0
      vertex 0.782172 -14.9384 0
    endloop
  endfacet
  facet normal 0 0 -1
    outer loop
      vertex 1.91342 -14.6194 0
      vertex 0.679837 -12.0923 0
      vertex 1.1 -11.9053 0
    endloop
  endfacet
  facet normal 0 0 -1
    outer loop
      vertex 0.229963 -12.1879 0
      vertex 0.782172 -14.9384 0
      vertex 0.392295 -14.9846 0
    endloop
  endfacet
  facet normal 0 0 -1
    outer loop
      vertex 1.16723 -14.8618 0
      vertex 0.229963 -12.1879 0
      vertex 0.679837 -12.0923 0
    endloop
  endfacet
  facet normal 0 0 -1
    outer loop
      vertex -9.18485e-16 -15 0
      vertex 0.229963 -12.1879 0
      vertex 0.392295 -14.9846 0
    endloop
  endfacet
  facet normal 0 0 -1
    outer loop
      vertex -9.18485e-16 -15 0
      vertex -0.229963 -12.1879 0
      vertex 0.229963 -12.1879 0
    endloop
  endfacet
  facet normal 0 0 -1
    outer loop
      vertex -0.392295 -14.9846 0
      vertex -0.229963 -12.1879 0
      vertex -9.18485e-16 -15 0
    endloop
  endfacet
  facet normal 0 0 -1
    outer loop
      vertex -0.782172 -14.9384 0
      vertex -0.229963 -12.1879 0
      vertex -0.392295 -14.9846 0
    endloop
  endfacet
  facet normal 0 0 -1
    outer loop
      vertex -1.16723 -14.8618 0
      vertex -0.229963 -12.1879 0
      vertex -0.782172 -14.9384 0
    endloop
  endfacet
  facet normal -0 0 -1
    outer loop
      vertex -0.229963 -12.1879 0
      vertex -1.16723 -14.8618 0
      vertex -0.679837 -12.0923 0
    endloop
  endfacet
  facet normal 0 0 -1
    outer loop
      vertex -1.54508 -14.7553 0
      vertex -0.679837 -12.0923 0
      vertex -1.16723 -14.8618 0
    endloop
  endfacet
  facet normal 0 0 -1
    outer loop
      vertex -1.91342 -14.6194 0
      vertex -0.679837 -12.0923 0
      vertex -1.54508 -14.7553 0
    endloop
  endfacet
  facet normal -0 0 -1
    outer loop
      vertex -0.679837 -12.0923 0
      vertex -1.91342 -14.6194 0
      vertex -1.1 -11.9053 0
    endloop
  endfacet
  facet normal 0 0 -1
    outer loop
      vertex -2.26995 -14.455 0
      vertex -1.1 -11.9053 0
      vertex -1.91342 -14.6194 0
    endloop
  endfacet
  facet normal 0 0 -1
    outer loop
      vertex -2.61249 -14.2632 0
      vertex -1.1 -11.9053 0
      vertex -2.26995 -14.455 0
    endloop
  endfacet
  facet normal 0 0 -1
    outer loop
      vertex -2.93893 -14.0451 0
      vertex -1.1 -11.9053 0
      vertex -2.61249 -14.2632 0
    endloop
  endfacet
  facet normal -0 0 -1
    outer loop
      vertex -1.1 -11.9053 0
      vertex -2.93893 -14.0451 0
      vertex -1.47209 -11.6349 0
    endloop
  endfacet
  facet normal 0 0 -1
    outer loop
      vertex -3.24724 -13.802 0
      vertex -1.47209 -11.6349 0
      vertex -2.93893 -14.0451 0
    endloop
  endfacet
  facet normal 0 0 -1
    outer loop
      vertex -3.80203 -13.2472 0
      vertex -1.47209 -11.6349 0
      vertex -3.53553 -13.5355 0
    endloop
  endfacet
  facet normal 0 0 -1
    outer loop
      vertex -3.53553 -13.5355 0
      vertex -1.47209 -11.6349 0
      vertex -3.24724 -13.802 0
    endloop
  endfacet
  facet normal -0 0 -1
    outer loop
      vertex 3.80203 13.2472 0
      vertex 1.47209 11.6349 0
      vertex 3.53553 13.5355 0
    endloop
  endfacet
  facet normal -0 0 -1
    outer loop
      vertex 3.53553 13.5355 0
      vertex 1.47209 11.6349 0
      vertex 3.24724 13.802 0
    endloop
  endfacet
  facet normal -0 0 -1
    outer loop
      vertex 3.24724 13.802 0
      vertex 1.47209 11.6349 0
      vertex 2.93893 14.0451 0
    endloop
  endfacet
  facet normal 0 0 -1
    outer loop
      vertex 1.1 11.9053 0
      vertex 2.93893 14.0451 0
      vertex 1.47209 11.6349 0
    endloop
  endfacet
  facet normal -0 0 -1
    outer loop
      vertex 2.93893 14.0451 0
      vertex 1.1 11.9053 0
      vertex 2.61249 14.2632 0
    endloop
  endfacet
  facet normal -0 0 -1
    outer loop
      vertex 2.61249 14.2632 0
      vertex 1.1 11.9053 0
      vertex 2.26995 14.455 0
    endloop
  endfacet
  facet normal -0 0 -1
    outer loop
      vertex 2.26995 14.455 0
      vertex 1.1 11.9053 0
      vertex 1.91342 14.6194 0
    endloop
  endfacet
  facet normal 0 0 -1
    outer loop
      vertex 0.679837 12.0923 0
      vertex 1.91342 14.6194 0
      vertex 1.1 11.9053 0
    endloop
  endfacet
  facet normal -0 0 -1
    outer loop
      vertex 1.91342 14.6194 0
      vertex 0.679837 12.0923 0
      vertex 1.54508 14.7553 0
    endloop
  endfacet
  facet normal -0 0 -1
    outer loop
      vertex 1.54508 14.7553 0
      vertex 0.679837 12.0923 0
      vertex 1.16723 14.8618 0
    endloop
  endfacet
  facet normal 0 0 -1
    outer loop
      vertex 0.229963 12.1879 0
      vertex 1.16723 14.8618 0
      vertex 0.679837 12.0923 0
    endloop
  endfacet
  facet normal -0 0 -1
    outer loop
      vertex 1.16723 14.8618 0
      vertex 0.229963 12.1879 0
      vertex 0.782172 14.9384 0
    endloop
  endfacet
  facet normal -0 0 -1
    outer loop
      vertex 0.782172 14.9384 0
      vertex 0.229963 12.1879 0
      vertex 0.392295 14.9846 0
    endloop
  endfacet
  facet normal 0 0 -1
    outer loop
      vertex 0.229963 12.1879 0
      vertex 3.06162e-16 15 0
      vertex 0.392295 14.9846 0
    endloop
  endfacet
  facet normal 0 0 -1
    outer loop
      vertex -0.229963 12.1879 0
      vertex 3.06162e-16 15 0
      vertex 0.229963 12.1879 0
    endloop
  endfacet
  facet normal 0 0 -1
    outer loop
      vertex -0.229963 12.1879 0
      vertex -0.392295 14.9846 0
      vertex 3.06162e-16 15 0
    endloop
  endfacet
  facet normal 0 0 -1
    outer loop
      vertex -1.16723 14.8618 0
      vertex -0.229963 12.1879 0
      vertex -0.679837 12.0923 0
    endloop
  endfacet
  facet normal 0 0 -1
    outer loop
      vertex -0.229963 12.1879 0
      vertex -0.782172 14.9384 0
      vertex -0.392295 14.9846 0
    endloop
  endfacet
  facet normal 0 0 -1
    outer loop
      vertex -1.91342 14.6194 0
      vertex -0.679837 12.0923 0
      vertex -1.1 11.9053 0
    endloop
  endfacet
  facet normal 0 0 -1
    outer loop
      vertex -0.229963 12.1879 0
      vertex -1.16723 14.8618 0
      vertex -0.782172 14.9384 0
    endloop
  endfacet
  facet normal 0 0 -1
    outer loop
      vertex -2.93893 14.0451 0
      vertex -1.1 11.9053 0
      vertex -1.47209 11.6349 0
    endloop
  endfacet
  facet normal 0 0 -1
    outer loop
      vertex -0.679837 12.0923 0
      vertex -1.54508 14.7553 0
      vertex -1.16723 14.8618 0
    endloop
  endfacet
  facet normal 0 0 -1
    outer loop
      vertex -3.80203 13.2472 0
      vertex -1.47209 11.6349 0
      vertex -1.77984 11.2931 0
    endloop
  endfacet
  facet normal 0 0 -1
    outer loop
      vertex -0.679837 12.0923 0
      vertex -1.91342 14.6194 0
      vertex -1.54508 14.7553 0
    endloop
  endfacet
  facet normal 0 0 -1
    outer loop
      vertex -4.2632 12.6125 0
      vertex -1.77984 11.2931 0
      vertex -2.0098 10.8948 0
    endloop
  endfacet
  facet normal 0 0 -1
    outer loop
      vertex -4.75528 11.5451 0
      vertex -2.0098 10.8948 0
      vertex -2.15192 10.4574 0
    endloop
  endfacet
  facet normal 0 0 -1
    outer loop
      vertex -4.98459 10.3923 0
      vertex -2.15192 10.4574 0
      vertex -2.2 10 0
    endloop
  endfacet
  facet normal 0 0 -1
    outer loop
      vertex -1.1 11.9053 0
      vertex -2.26995 14.455 0
      vertex -1.91342 14.6194 0
    endloop
  endfacet
  facet normal 0 0 -1
    outer loop
      vertex -2.0098 9.10518 0
      vertex -5 10 0
      vertex -2.15192 9.54259 0
    endloop
  endfacet
  facet normal -0 0 -1
    outer loop
      vertex -1.47209 -11.6349 0
      vertex -3.80203 -13.2472 0
      vertex -1.77984 -11.2931 0
    endloop
  endfacet
  facet normal 0 0 -1
    outer loop
      vertex -2.15192 9.54259 0
      vertex -5 10 0
      vertex -2.2 10 0
    endloop
  endfacet
  facet normal 0 0 -1
    outer loop
      vertex -4.04508 -12.9389 0
      vertex -1.77984 -11.2931 0
      vertex -3.80203 -13.2472 0
    endloop
  endfacet
  facet normal 0 -0 -1
    outer loop
      vertex -4.98459 10.3923 0
      vertex -2.2 10 0
      vertex -5 10 0
    endloop
  endfacet
  facet normal 0 0 -1
    outer loop
      vertex -4.2632 -12.6125 0
      vertex -1.77984 -11.2931 0
      vertex -4.04508 -12.9389 0
    endloop
  endfacet
  facet normal 0 0 -1
    outer loop
      vertex -1.1 11.9053 0
      vertex -2.61249 14.2632 0
      vertex -2.26995 14.455 0
    endloop
  endfacet
  facet normal -0 0 -1
    outer loop
      vertex -1.77984 -11.2931 0
      vertex -4.2632 -12.6125 0
      vertex -2.0098 -10.8948 0
    endloop
  endfacet
  facet normal 0 0 -1
    outer loop
      vertex -1.1 11.9053 0
      vertex -2.93893 14.0451 0
      vertex -2.61249 14.2632 0
    endloop
  endfacet
  facet normal 0 0 -1
    outer loop
      vertex -4.45503 -12.27 0
      vertex -2.0098 -10.8948 0
      vertex -4.2632 -12.6125 0
    endloop
  endfacet
  facet normal 0 0 -1
    outer loop
      vertex -1.47209 11.6349 0
      vertex -3.24724 13.802 0
      vertex -2.93893 14.0451 0
    endloop
  endfacet
  facet normal 0 0 -1
    outer loop
      vertex -4.6194 -11.9134 0
      vertex -2.0098 -10.8948 0
      vertex -4.45503 -12.27 0
    endloop
  endfacet
  facet normal 0 0 -1
    outer loop
      vertex -1.47209 11.6349 0
      vertex -3.53553 13.5355 0
      vertex -3.24724 13.802 0
    endloop
  endfacet
  facet normal 0 0 -1
    outer loop
      vertex -4.75528 -11.5451 0
      vertex -2.0098 -10.8948 0
      vertex -4.6194 -11.9134 0
    endloop
  endfacet
  facet normal 0 0 -1
    outer loop
      vertex -1.47209 11.6349 0
      vertex -3.80203 13.2472 0
      vertex -3.53553 13.5355 0
    endloop
  endfacet
  facet normal -0 0 -1
    outer loop
      vertex -2.0098 -10.8948 0
      vertex -4.75528 -11.5451 0
      vertex -2.15192 -10.4574 0
    endloop
  endfacet
  facet normal 0 0 -1
    outer loop
      vertex -1.77984 11.2931 0
      vertex -4.04508 12.9389 0
      vertex -3.80203 13.2472 0
    endloop
  endfacet
  facet normal 0 0 -1
    outer loop
      vertex -4.86185 -11.1672 0
      vertex -2.15192 -10.4574 0
      vertex -4.75528 -11.5451 0
    endloop
  endfacet
  facet normal 0 0 -1
    outer loop
      vertex -1.77984 11.2931 0
      vertex -4.2632 12.6125 0
      vertex -4.04508 12.9389 0
    endloop
  endfacet
  facet normal 0 0 -1
    outer loop
      vertex -4.93844 -10.7822 0
      vertex -2.15192 -10.4574 0
      vertex -4.86185 -11.1672 0
    endloop
  endfacet
  facet normal 0 0 -1
    outer loop
      vertex -2.0098 10.8948 0
      vertex -4.45503 12.27 0
      vertex -4.2632 12.6125 0
    endloop
  endfacet
  facet normal 0 0 -1
    outer loop
      vertex -4.98459 -10.3923 0
      vertex -2.15192 -10.4574 0
      vertex -4.93844 -10.7822 0
    endloop
  endfacet
  facet normal 0 0 -1
    outer loop
      vertex -2.0098 10.8948 0
      vertex -4.6194 11.9134 0
      vertex -4.45503 12.27 0
    endloop
  endfacet
  facet normal 0 0 -1
    outer loop
      vertex -2.15192 -10.4574 0
      vertex -4.98459 -10.3923 0
      vertex -2.2 -10 0
    endloop
  endfacet
  facet normal 0 0 -1
    outer loop
      vertex -2.0098 10.8948 0
      vertex -4.75528 11.5451 0
      vertex -4.6194 11.9134 0
    endloop
  endfacet
  facet normal -0 0 -1
    outer loop
      vertex -2.2 -10 0
      vertex -4.98459 -10.3923 0
      vertex -5 -10 0
    endloop
  endfacet
  facet normal 0 0 -1
    outer loop
      vertex -2.15192 10.4574 0
      vertex -4.86185 11.1672 0
      vertex -4.75528 11.5451 0
    endloop
  endfacet
  facet normal 0 0 -1
    outer loop
      vertex -2.15192 10.4574 0
      vertex -4.93844 10.7822 0
      vertex -4.86185 11.1672 0
    endloop
  endfacet
  facet normal -0 0 -1
    outer loop
      vertex -2.15192 10.4574 0
      vertex -4.98459 10.3923 0
      vertex -4.93844 10.7822 0
    endloop
  endfacet
  facet normal -0.962455 0.271441 0
    outer loop
      vertex -4.86185 11.1672 0
      vertex -4.75528 11.5451 8
      vertex -4.75528 11.5451 0
    endloop
  endfacet
  facet normal -0.962455 0.271441 0
    outer loop
      vertex -4.75528 11.5451 8
      vertex -4.86185 11.1672 0
      vertex -4.86185 11.1672 8
    endloop
  endfacet
  facet normal -1 0 0
    outer loop
      vertex -5 -10 0
      vertex -5 10 8
      vertex -5 10 0
    endloop
  endfacet
  facet normal -1 -0 0
    outer loop
      vertex -5 10 8
      vertex -5 -10 0
      vertex -5 -10 8
    endloop
  endfacet
  facet normal 1 -0 0
    outer loop
      vertex 5 -10 8
      vertex 5 10 0
      vertex 5 10 8
    endloop
  endfacet
  facet normal 1 0 0
    outer loop
      vertex 5 10 0
      vertex 5 -10 8
      vertex 5 -10 0
    endloop
  endfacet
  facet normal 0.980785 -0.19509 0
    outer loop
      vertex 4.86185 -11.1672 8
      vertex 4.93844 -10.7822 0
      vertex 4.93844 -10.7822 8
    endloop
  endfacet
  facet normal 0.980785 -0.19509 0
    outer loop
      vertex 4.93844 -10.7822 0
      vertex 4.86185 -11.1672 8
      vertex 4.86185 -11.1672 0
    endloop
  endfacet
  facet normal 0.418661 -0.908142 0
    outer loop
      vertex 1.91342 -14.6194 0
      vertex 2.26995 -14.455 8
      vertex 1.91342 -14.6194 8
    endloop
  endfacet
  facet normal 0.418661 -0.908142 0
    outer loop
      vertex 2.26995 -14.455 8
      vertex 1.91342 -14.6194 0
      vertex 2.26995 -14.455 0
    endloop
  endfacet
  facet normal 0.83147 0.555569 0
    outer loop
      vertex 4.2632 12.6125 8
      vertex 4.04508 12.9389 0
      vertex 4.04508 12.9389 8
    endloop
  endfacet
  facet normal 0.83147 0.555569 0
    outer loop
      vertex 4.04508 12.9389 0
      vertex 4.2632 12.6125 8
      vertex 4.2632 12.6125 0
    endloop
  endfacet
  facet normal 0.678801 0.734323 -0
    outer loop
      vertex 3.53553 13.5355 0
      vertex 3.24724 13.802 8
      vertex 3.53553 13.5355 8
    endloop
  endfacet
  facet normal 0.678801 0.734323 0
    outer loop
      vertex 3.24724 13.802 8
      vertex 3.53553 13.5355 0
      vertex 3.24724 13.802 0
    endloop
  endfacet
  facet normal -0.418661 0.908142 0
    outer loop
      vertex -1.91342 14.6194 0
      vertex -2.26995 14.455 8
      vertex -1.91342 14.6194 8
    endloop
  endfacet
  facet normal -0.418661 0.908142 0
    outer loop
      vertex -2.26995 14.455 8
      vertex -1.91342 14.6194 0
      vertex -2.26995 14.455 0
    endloop
  endfacet
  facet normal 0 0 1
    outer loop
      vertex 1.77984 8.70687 8
      vertex 5 10 8
      vertex 2.0098 9.10518 8
    endloop
  endfacet
  facet normal 0 0 1
    outer loop
      vertex 5 -10 8
      vertex 2.15192 -9.54259 8
      vertex 2.2 -10 8
    endloop
  endfacet
  facet normal 0 0 1
    outer loop
      vertex 1.47209 8.36508 8
      vertex 5 10 8
      vertex 1.77984 8.70687 8
    endloop
  endfacet
  facet normal 0 0 1
    outer loop
      vertex 5 -10 8
      vertex 2.0098 -9.10518 8
      vertex 2.15192 -9.54259 8
    endloop
  endfacet
  facet normal 0 0 1
    outer loop
      vertex 5 10 8
      vertex 1.47209 8.36508 8
      vertex 5 -10 8
    endloop
  endfacet
  facet normal 0 0 1
    outer loop
      vertex 5 -10 8
      vertex 1.77984 -8.70687 8
      vertex 2.0098 -9.10518 8
    endloop
  endfacet
  facet normal -0 0 1
    outer loop
      vertex 1.47209 -8.36508 8
      vertex 5 -10 8
      vertex 1.47209 8.36508 8
    endloop
  endfacet
  facet normal 0 0 1
    outer loop
      vertex 5 -10 8
      vertex 1.47209 -8.36508 8
      vertex 1.77984 -8.70687 8
    endloop
  endfacet
  facet normal -0 0 1
    outer loop
      vertex 1.1 8.09474 8
      vertex 1.47209 -8.36508 8
      vertex 1.47209 8.36508 8
    endloop
  endfacet
  facet normal 0 0 1
    outer loop
      vertex 1.1 8.09474 8
      vertex 1.1 -8.09474 8
      vertex 1.47209 -8.36508 8
    endloop
  endfacet
  facet normal -0 0 1
    outer loop
      vertex 0.679837 7.90768 8
      vertex 1.1 -8.09474 8
      vertex 1.1 8.09474 8
    endloop
  endfacet
  facet normal 0 0 1
    outer loop
      vertex 0.679837 7.90768 8
      vertex 0.679837 -7.90768 8
      vertex 1.1 -8.09474 8
    endloop
  endfacet
  facet normal -0 0 1
    outer loop
      vertex 0.229963 7.81205 8
      vertex 0.679837 -7.90768 8
      vertex 0.679837 7.90768 8
    endloop
  endfacet
  facet normal 0 0 1
    outer loop
      vertex 0.229963 7.81205 8
      vertex 0.229963 -7.81205 8
      vertex 0.679837 -7.90768 8
    endloop
  endfacet
  facet normal -0 0 1
    outer loop
      vertex -0.229963 7.81205 8
      vertex 0.229963 -7.81205 8
      vertex 0.229963 7.81205 8
    endloop
  endfacet
  facet normal 0 0 1
    outer loop
      vertex -0.229963 7.81205 8
      vertex -0.229963 -7.81205 8
      vertex 0.229963 -7.81205 8
    endloop
  endfacet
  facet normal 0 0 1
    outer loop
      vertex -0.679837 7.90768 8
      vertex -0.229963 -7.81205 8
      vertex -0.229963 7.81205 8
    endloop
  endfacet
  facet normal 0 0 1
    outer loop
      vertex -0.679837 7.90768 8
      vertex -0.679837 -7.90768 8
      vertex -0.229963 -7.81205 8
    endloop
  endfacet
  facet normal 0 0 1
    outer loop
      vertex -1.1 8.09474 8
      vertex -0.679837 -7.90768 8
      vertex -0.679837 7.90768 8
    endloop
  endfacet
  facet normal 0 0 1
    outer loop
      vertex -1.1 8.09474 8
      vertex -1.1 -8.09474 8
      vertex -0.679837 -7.90768 8
    endloop
  endfacet
  facet normal 0 0 1
    outer loop
      vertex -1.47209 8.36508 8
      vertex -1.1 -8.09474 8
      vertex -1.1 8.09474 8
    endloop
  endfacet
  facet normal 0 0 1
    outer loop
      vertex -1.47209 8.36508 8
      vertex -1.47209 -8.36508 8
      vertex -1.1 -8.09474 8
    endloop
  endfacet
  facet normal 0 0 1
    outer loop
      vertex -5 10 8
      vertex -1.47209 8.36508 8
      vertex -1.77984 8.70687 8
    endloop
  endfacet
  facet normal 0 0 1
    outer loop
      vertex -1.47209 8.36508 8
      vertex -5 10 8
      vertex -1.47209 -8.36508 8
    endloop
  endfacet
  facet normal 0 0 1
    outer loop
      vertex -5 10 8
      vertex -1.77984 8.70687 8
      vertex -2.0098 9.10518 8
    endloop
  endfacet
  facet normal 0 0 1
    outer loop
      vertex -5 -10 8
      vertex -1.47209 -8.36508 8
      vertex -5 10 8
    endloop
  endfacet
  facet normal 0 0 1
    outer loop
      vertex -5 10 8
      vertex -2.0098 9.10518 8
      vertex -2.15192 9.54259 8
    endloop
  endfacet
  facet normal 0 0 1
    outer loop
      vertex -1.47209 -8.36508 8
      vertex -5 -10 8
      vertex -1.77984 -8.70687 8
    endloop
  endfacet
  facet normal -0 0 1
    outer loop
      vertex -5 10 8
      vertex -2.15192 9.54259 8
      vertex -2.2 10 8
    endloop
  endfacet
  facet normal 0 0 1
    outer loop
      vertex -1.77984 -8.70687 8
      vertex -5 -10 8
      vertex -2.0098 -9.10518 8
    endloop
  endfacet
  facet normal 0 0 1
    outer loop
      vertex 2.2 10 8
      vertex 5 10 8
      vertex 4.98459 10.3923 8
    endloop
  endfacet
  facet normal 0 0 1
    outer loop
      vertex 2.15192 9.54259 8
      vertex 5 10 8
      vertex 2.2 10 8
    endloop
  endfacet
  facet normal -0 0 1
    outer loop
      vertex 2.15192 10.4574 8
      vertex 4.98459 10.3923 8
      vertex 4.93844 10.7822 8
    endloop
  endfacet
  facet normal 0 0 1
    outer loop
      vertex 2.0098 9.10518 8
      vertex 5 10 8
      vertex 2.15192 9.54259 8
    endloop
  endfacet
  facet normal 0 0 1
    outer loop
      vertex 2.15192 10.4574 8
      vertex 4.93844 10.7822 8
      vertex 4.86185 11.1672 8
    endloop
  endfacet
  facet normal 0 0 1
    outer loop
      vertex 5 -10 8
      vertex 2.2 -10 8
      vertex 4.98459 -10.3923 8
    endloop
  endfacet
  facet normal 0 0 1
    outer loop
      vertex 2.15192 10.4574 8
      vertex 4.86185 11.1672 8
      vertex 4.75528 11.5451 8
    endloop
  endfacet
  facet normal 0 0 1
    outer loop
      vertex 2.15192 -10.4574 8
      vertex 4.98459 -10.3923 8
      vertex 2.2 -10 8
    endloop
  endfacet
  facet normal 0 0 1
    outer loop
      vertex 2.0098 10.8948 8
      vertex 4.75528 11.5451 8
      vertex 4.6194 11.9134 8
    endloop
  endfacet
  facet normal 0 0 1
    outer loop
      vertex 4.98459 -10.3923 8
      vertex 2.15192 -10.4574 8
      vertex 4.93844 -10.7822 8
    endloop
  endfacet
  facet normal 0 0 1
    outer loop
      vertex 2.0098 10.8948 8
      vertex 4.6194 11.9134 8
      vertex 4.45503 12.27 8
    endloop
  endfacet
  facet normal 0 0 1
    outer loop
      vertex 4.93844 -10.7822 8
      vertex 2.15192 -10.4574 8
      vertex 4.86185 -11.1672 8
    endloop
  endfacet
  facet normal 0 0 1
    outer loop
      vertex 2.0098 10.8948 8
      vertex 4.45503 12.27 8
      vertex 4.2632 12.6125 8
    endloop
  endfacet
  facet normal 0 0 1
    outer loop
      vertex 4.86185 -11.1672 8
      vertex 2.15192 -10.4574 8
      vertex 4.75528 -11.5451 8
    endloop
  endfacet
  facet normal 0 0 1
    outer loop
      vertex 1.77984 11.2931 8
      vertex 4.2632 12.6125 8
      vertex 4.04508 12.9389 8
    endloop
  endfacet
  facet normal -0 0 1
    outer loop
      vertex 2.0098 -10.8948 8
      vertex 4.75528 -11.5451 8
      vertex 2.15192 -10.4574 8
    endloop
  endfacet
  facet normal 0 0 1
    outer loop
      vertex 1.77984 11.2931 8
      vertex 4.04508 12.9389 8
      vertex 3.80203 13.2472 8
    endloop
  endfacet
  facet normal 0 0 1
    outer loop
      vertex 4.75528 -11.5451 8
      vertex 2.0098 -10.8948 8
      vertex 4.6194 -11.9134 8
    endloop
  endfacet
  facet normal 0 0 1
    outer loop
      vertex 1.47209 11.6349 8
      vertex 3.80203 13.2472 8
      vertex 3.53553 13.5355 8
    endloop
  endfacet
  facet normal 0 0 1
    outer loop
      vertex 4.6194 -11.9134 8
      vertex 2.0098 -10.8948 8
      vertex 4.45503 -12.27 8
    endloop
  endfacet
  facet normal 0 0 1
    outer loop
      vertex 1.47209 11.6349 8
      vertex 3.53553 13.5355 8
      vertex 3.24724 13.802 8
    endloop
  endfacet
  facet normal 0 0 1
    outer loop
      vertex 4.45503 -12.27 8
      vertex 2.0098 -10.8948 8
      vertex 4.2632 -12.6125 8
    endloop
  endfacet
  facet normal 0 0 1
    outer loop
      vertex 1.47209 11.6349 8
      vertex 3.24724 13.802 8
      vertex 2.93893 14.0451 8
    endloop
  endfacet
  facet normal -0 0 1
    outer loop
      vertex 1.77984 -11.2931 8
      vertex 4.2632 -12.6125 8
      vertex 2.0098 -10.8948 8
    endloop
  endfacet
  facet normal 0 0 1
    outer loop
      vertex 1.1 11.9053 8
      vertex 2.93893 14.0451 8
      vertex 2.61249 14.2632 8
    endloop
  endfacet
  facet normal 0 0 1
    outer loop
      vertex 4.2632 -12.6125 8
      vertex 1.77984 -11.2931 8
      vertex 4.04508 -12.9389 8
    endloop
  endfacet
  facet normal 0 0 1
    outer loop
      vertex 1.1 11.9053 8
      vertex 2.61249 14.2632 8
      vertex 2.26995 14.455 8
    endloop
  endfacet
  facet normal 0 0 1
    outer loop
      vertex 4.04508 -12.9389 8
      vertex 1.77984 -11.2931 8
      vertex 3.80203 -13.2472 8
    endloop
  endfacet
  facet normal -0 0 1
    outer loop
      vertex 1.47209 -11.6349 8
      vertex 3.80203 -13.2472 8
      vertex 1.77984 -11.2931 8
    endloop
  endfacet
  facet normal 0 0 1
    outer loop
      vertex 4.98459 10.3923 8
      vertex 2.15192 10.4574 8
      vertex 2.2 10 8
    endloop
  endfacet
  facet normal 0 0 1
    outer loop
      vertex 4.75528 11.5451 8
      vertex 2.0098 10.8948 8
      vertex 2.15192 10.4574 8
    endloop
  endfacet
  facet normal 0 0 1
    outer loop
      vertex 1.1 11.9053 8
      vertex 2.26995 14.455 8
      vertex 1.91342 14.6194 8
    endloop
  endfacet
  facet normal 0 0 1
    outer loop
      vertex 4.2632 12.6125 8
      vertex 1.77984 11.2931 8
      vertex 2.0098 10.8948 8
    endloop
  endfacet
  facet normal 0 0 1
    outer loop
      vertex 0.679837 12.0923 8
      vertex 1.91342 14.6194 8
      vertex 1.54508 14.7553 8
    endloop
  endfacet
  facet normal 0 0 1
    outer loop
      vertex 3.80203 13.2472 8
      vertex 1.47209 11.6349 8
      vertex 1.77984 11.2931 8
    endloop
  endfacet
  facet normal 0 0 1
    outer loop
      vertex 0.679837 12.0923 8
      vertex 1.54508 14.7553 8
      vertex 1.16723 14.8618 8
    endloop
  endfacet
  facet normal 0 0 1
    outer loop
      vertex 2.93893 14.0451 8
      vertex 1.1 11.9053 8
      vertex 1.47209 11.6349 8
    endloop
  endfacet
  facet normal 0 0 1
    outer loop
      vertex 0.229963 12.1879 8
      vertex 1.16723 14.8618 8
      vertex 0.782172 14.9384 8
    endloop
  endfacet
  facet normal 0 0 1
    outer loop
      vertex 1.91342 14.6194 8
      vertex 0.679837 12.0923 8
      vertex 1.1 11.9053 8
    endloop
  endfacet
  facet normal 0 0 1
    outer loop
      vertex 0.229963 12.1879 8
      vertex 0.782172 14.9384 8
      vertex 0.392295 14.9846 8
    endloop
  endfacet
  facet normal 0 0 1
    outer loop
      vertex 1.16723 14.8618 8
      vertex 0.229963 12.1879 8
      vertex 0.679837 12.0923 8
    endloop
  endfacet
  facet normal 0 0 1
    outer loop
      vertex 3.06162e-16 15 8
      vertex 0.229963 12.1879 8
      vertex 0.392295 14.9846 8
    endloop
  endfacet
  facet normal 0 0 1
    outer loop
      vertex 3.06162e-16 15 8
      vertex -0.229963 12.1879 8
      vertex 0.229963 12.1879 8
    endloop
  endfacet
  facet normal -0 0 1
    outer loop
      vertex -0.392295 14.9846 8
      vertex -0.229963 12.1879 8
      vertex 3.06162e-16 15 8
    endloop
  endfacet
  facet normal -0 0 1
    outer loop
      vertex -0.782172 14.9384 8
      vertex -0.229963 12.1879 8
      vertex -0.392295 14.9846 8
    endloop
  endfacet
  facet normal -0 0 1
    outer loop
      vertex -1.16723 14.8618 8
      vertex -0.229963 12.1879 8
      vertex -0.782172 14.9384 8
    endloop
  endfacet
  facet normal 0 0 1
    outer loop
      vertex -0.229963 12.1879 8
      vertex -1.16723 14.8618 8
      vertex -0.679837 12.0923 8
    endloop
  endfacet
  facet normal -0 0 1
    outer loop
      vertex -1.54508 14.7553 8
      vertex -0.679837 12.0923 8
      vertex -1.16723 14.8618 8
    endloop
  endfacet
  facet normal -0 0 1
    outer loop
      vertex -1.91342 14.6194 8
      vertex -0.679837 12.0923 8
      vertex -1.54508 14.7553 8
    endloop
  endfacet
  facet normal 0 0 1
    outer loop
      vertex -0.679837 12.0923 8
      vertex -1.91342 14.6194 8
      vertex -1.1 11.9053 8
    endloop
  endfacet
  facet normal -0 0 1
    outer loop
      vertex -2.26995 14.455 8
      vertex -1.1 11.9053 8
      vertex -1.91342 14.6194 8
    endloop
  endfacet
  facet normal -0 0 1
    outer loop
      vertex -2.61249 14.2632 8
      vertex -1.1 11.9053 8
      vertex -2.26995 14.455 8
    endloop
  endfacet
  facet normal -0 0 1
    outer loop
      vertex -2.93893 14.0451 8
      vertex -1.1 11.9053 8
      vertex -2.61249 14.2632 8
    endloop
  endfacet
  facet normal 0 0 1
    outer loop
      vertex -1.1 11.9053 8
      vertex -2.93893 14.0451 8
      vertex -1.47209 11.6349 8
    endloop
  endfacet
  facet normal -0 0 1
    outer loop
      vertex -3.24724 13.802 8
      vertex -1.47209 11.6349 8
      vertex -2.93893 14.0451 8
    endloop
  endfacet
  facet normal -0 0 1
    outer loop
      vertex -3.80203 13.2472 8
      vertex -1.47209 11.6349 8
      vertex -3.53553 13.5355 8
    endloop
  endfacet
  facet normal -0 0 1
    outer loop
      vertex -3.53553 13.5355 8
      vertex -1.47209 11.6349 8
      vertex -3.24724 13.802 8
    endloop
  endfacet
  facet normal 0 0 1
    outer loop
      vertex 3.80203 -13.2472 8
      vertex 1.47209 -11.6349 8
      vertex 3.53553 -13.5355 8
    endloop
  endfacet
  facet normal 0 0 1
    outer loop
      vertex 3.53553 -13.5355 8
      vertex 1.47209 -11.6349 8
      vertex 3.24724 -13.802 8
    endloop
  endfacet
  facet normal 0 0 1
    outer loop
      vertex 3.24724 -13.802 8
      vertex 1.47209 -11.6349 8
      vertex 2.93893 -14.0451 8
    endloop
  endfacet
  facet normal -0 0 1
    outer loop
      vertex 1.1 -11.9053 8
      vertex 2.93893 -14.0451 8
      vertex 1.47209 -11.6349 8
    endloop
  endfacet
  facet normal 0 0 1
    outer loop
      vertex 2.93893 -14.0451 8
      vertex 1.1 -11.9053 8
      vertex 2.61249 -14.2632 8
    endloop
  endfacet
  facet normal 0 0 1
    outer loop
      vertex 2.61249 -14.2632 8
      vertex 1.1 -11.9053 8
      vertex 2.26995 -14.455 8
    endloop
  endfacet
  facet normal 0 0 1
    outer loop
      vertex 2.26995 -14.455 8
      vertex 1.1 -11.9053 8
      vertex 1.91342 -14.6194 8
    endloop
  endfacet
  facet normal -0 0 1
    outer loop
      vertex 0.679837 -12.0923 8
      vertex 1.91342 -14.6194 8
      vertex 1.1 -11.9053 8
    endloop
  endfacet
  facet normal 0 0 1
    outer loop
      vertex 1.91342 -14.6194 8
      vertex 0.679837 -12.0923 8
      vertex 1.54508 -14.7553 8
    endloop
  endfacet
  facet normal 0 0 1
    outer loop
      vertex 1.54508 -14.7553 8
      vertex 0.679837 -12.0923 8
      vertex 1.16723 -14.8618 8
    endloop
  endfacet
  facet normal -0 0 1
    outer loop
      vertex 0.229963 -12.1879 8
      vertex 1.16723 -14.8618 8
      vertex 0.679837 -12.0923 8
    endloop
  endfacet
  facet normal 0 0 1
    outer loop
      vertex 1.16723 -14.8618 8
      vertex 0.229963 -12.1879 8
      vertex 0.782172 -14.9384 8
    endloop
  endfacet
  facet normal 0 0 1
    outer loop
      vertex 0.782172 -14.9384 8
      vertex 0.229963 -12.1879 8
      vertex 0.392295 -14.9846 8
    endloop
  endfacet
  facet normal 0 0 1
    outer loop
      vertex 0.229963 -12.1879 8
      vertex -9.18485e-16 -15 8
      vertex 0.392295 -14.9846 8
    endloop
  endfacet
  facet normal -0 0 1
    outer loop
      vertex -0.229963 -12.1879 8
      vertex -9.18485e-16 -15 8
      vertex 0.229963 -12.1879 8
    endloop
  endfacet
  facet normal 0 0 1
    outer loop
      vertex -0.229963 -12.1879 8
      vertex -0.392295 -14.9846 8
      vertex -9.18485e-16 -15 8
    endloop
  endfacet
  facet normal 0 0 1
    outer loop
      vertex -1.16723 -14.8618 8
      vertex -0.229963 -12.1879 8
      vertex -0.679837 -12.0923 8
    endloop
  endfacet
  facet normal 0 0 1
    outer loop
      vertex -0.229963 -12.1879 8
      vertex -0.782172 -14.9384 8
      vertex -0.392295 -14.9846 8
    endloop
  endfacet
  facet normal 0 0 1
    outer loop
      vertex -1.91342 -14.6194 8
      vertex -0.679837 -12.0923 8
      vertex -1.1 -11.9053 8
    endloop
  endfacet
  facet normal 0 0 1
    outer loop
      vertex -0.229963 -12.1879 8
      vertex -1.16723 -14.8618 8
      vertex -0.782172 -14.9384 8
    endloop
  endfacet
  facet normal 0 0 1
    outer loop
      vertex -2.93893 -14.0451 8
      vertex -1.1 -11.9053 8
      vertex -1.47209 -11.6349 8
    endloop
  endfacet
  facet normal 0 0 1
    outer loop
      vertex -0.679837 -12.0923 8
      vertex -1.54508 -14.7553 8
      vertex -1.16723 -14.8618 8
    endloop
  endfacet
  facet normal 0 0 1
    outer loop
      vertex -3.80203 -13.2472 8
      vertex -1.47209 -11.6349 8
      vertex -1.77984 -11.2931 8
    endloop
  endfacet
  facet normal 0 0 1
    outer loop
      vertex -0.679837 -12.0923 8
      vertex -1.91342 -14.6194 8
      vertex -1.54508 -14.7553 8
    endloop
  endfacet
  facet normal 0 0 1
    outer loop
      vertex -4.2632 -12.6125 8
      vertex -1.77984 -11.2931 8
      vertex -2.0098 -10.8948 8
    endloop
  endfacet
  facet normal 0 0 1
    outer loop
      vertex -4.75528 -11.5451 8
      vertex -2.0098 -10.8948 8
      vertex -2.15192 -10.4574 8
    endloop
  endfacet
  facet normal -0 0 1
    outer loop
      vertex -4.98459 -10.3923 8
      vertex -2.15192 -10.4574 8
      vertex -2.2 -10 8
    endloop
  endfacet
  facet normal 0 0 1
    outer loop
      vertex -1.1 -11.9053 8
      vertex -2.26995 -14.455 8
      vertex -1.91342 -14.6194 8
    endloop
  endfacet
  facet normal 0 0 1
    outer loop
      vertex -2.0098 -9.10518 8
      vertex -5 -10 8
      vertex -2.15192 -9.54259 8
    endloop
  endfacet
  facet normal 0 0 1
    outer loop
      vertex -1.47209 11.6349 8
      vertex -3.80203 13.2472 8
      vertex -1.77984 11.2931 8
    endloop
  endfacet
  facet normal 0 0 1
    outer loop
      vertex -2.15192 -9.54259 8
      vertex -5 -10 8
      vertex -2.2 -10 8
    endloop
  endfacet
  facet normal -0 0 1
    outer loop
      vertex -4.04508 12.9389 8
      vertex -1.77984 11.2931 8
      vertex -3.80203 13.2472 8
    endloop
  endfacet
  facet normal 0 -0 1
    outer loop
      vertex -4.98459 -10.3923 8
      vertex -2.2 -10 8
      vertex -5 -10 8
    endloop
  endfacet
  facet normal -0 0 1
    outer loop
      vertex -4.2632 12.6125 8
      vertex -1.77984 11.2931 8
      vertex -4.04508 12.9389 8
    endloop
  endfacet
  facet normal 0 0 1
    outer loop
      vertex -1.1 -11.9053 8
      vertex -2.61249 -14.2632 8
      vertex -2.26995 -14.455 8
    endloop
  endfacet
  facet normal 0 0 1
    outer loop
      vertex -1.77984 11.2931 8
      vertex -4.2632 12.6125 8
      vertex -2.0098 10.8948 8
    endloop
  endfacet
  facet normal 0 0 1
    outer loop
      vertex -1.1 -11.9053 8
      vertex -2.93893 -14.0451 8
      vertex -2.61249 -14.2632 8
    endloop
  endfacet
  facet normal -0 0 1
    outer loop
      vertex -4.45503 12.27 8
      vertex -2.0098 10.8948 8
      vertex -4.2632 12.6125 8
    endloop
  endfacet
  facet normal 0 0 1
    outer loop
      vertex -1.47209 -11.6349 8
      vertex -3.24724 -13.802 8
      vertex -2.93893 -14.0451 8
    endloop
  endfacet
  facet normal -0 0 1
    outer loop
      vertex -4.6194 11.9134 8
      vertex -2.0098 10.8948 8
      vertex -4.45503 12.27 8
    endloop
  endfacet
  facet normal 0 0 1
    outer loop
      vertex -1.47209 -11.6349 8
      vertex -3.53553 -13.5355 8
      vertex -3.24724 -13.802 8
    endloop
  endfacet
  facet normal -0 0 1
    outer loop
      vertex -4.75528 11.5451 8
      vertex -2.0098 10.8948 8
      vertex -4.6194 11.9134 8
    endloop
  endfacet
  facet normal 0 0 1
    outer loop
      vertex -1.47209 -11.6349 8
      vertex -3.80203 -13.2472 8
      vertex -3.53553 -13.5355 8
    endloop
  endfacet
  facet normal 0 0 1
    outer loop
      vertex -2.0098 10.8948 8
      vertex -4.75528 11.5451 8
      vertex -2.15192 10.4574 8
    endloop
  endfacet
  facet normal 0 0 1
    outer loop
      vertex -1.77984 -11.2931 8
      vertex -4.04508 -12.9389 8
      vertex -3.80203 -13.2472 8
    endloop
  endfacet
  facet normal -0 0 1
    outer loop
      vertex -4.86185 11.1672 8
      vertex -2.15192 10.4574 8
      vertex -4.75528 11.5451 8
    endloop
  endfacet
  facet normal 0 0 1
    outer loop
      vertex -1.77984 -11.2931 8
      vertex -4.2632 -12.6125 8
      vertex -4.04508 -12.9389 8
    endloop
  endfacet
  facet normal -0 0 1
    outer loop
      vertex -4.93844 10.7822 8
      vertex -2.15192 10.4574 8
      vertex -4.86185 11.1672 8
    endloop
  endfacet
  facet normal 0 0 1
    outer loop
      vertex -2.0098 -10.8948 8
      vertex -4.45503 -12.27 8
      vertex -4.2632 -12.6125 8
    endloop
  endfacet
  facet normal 0 0 1
    outer loop
      vertex -4.98459 10.3923 8
      vertex -2.15192 10.4574 8
      vertex -4.93844 10.7822 8
    endloop
  endfacet
  facet normal 0 0 1
    outer loop
      vertex -2.0098 -10.8948 8
      vertex -4.6194 -11.9134 8
      vertex -4.45503 -12.27 8
    endloop
  endfacet
  facet normal 0 0 1
    outer loop
      vertex -2.15192 10.4574 8
      vertex -4.98459 10.3923 8
      vertex -2.2 10 8
    endloop
  endfacet
  facet normal 0 0 1
    outer loop
      vertex -2.0098 -10.8948 8
      vertex -4.75528 -11.5451 8
      vertex -4.6194 -11.9134 8
    endloop
  endfacet
  facet normal 0 0 1
    outer loop
      vertex -2.2 10 8
      vertex -4.98459 10.3923 8
      vertex -5 10 8
    endloop
  endfacet
  facet normal 0 0 1
    outer loop
      vertex -2.15192 -10.4574 8
      vertex -4.86185 -11.1672 8
      vertex -4.75528 -11.5451 8
    endloop
  endfacet
  facet normal 0 0 1
    outer loop
      vertex -2.15192 -10.4574 8
      vertex -4.93844 -10.7822 8
      vertex -4.86185 -11.1672 8
    endloop
  endfacet
  facet normal 0 0 1
    outer loop
      vertex -2.15192 -10.4574 8
      vertex -4.98459 -10.3923 8
      vertex -4.93844 -10.7822 8
    endloop
  endfacet
  facet normal -0.980785 0.19509 0
    outer loop
      vertex -4.93844 10.7822 0
      vertex -4.86185 11.1672 8
      vertex -4.86185 11.1672 0
    endloop
  endfacet
  facet normal -0.980785 0.19509 0
    outer loop
      vertex -4.86185 11.1672 8
      vertex -4.93844 10.7822 0
      vertex -4.93844 10.7822 8
    endloop
  endfacet
  facet normal -0.908144 0.418659 0
    outer loop
      vertex -4.6194 11.9134 0
      vertex -4.45503 12.27 8
      vertex -4.45503 12.27 0
    endloop
  endfacet
  facet normal -0.908144 0.418659 0
    outer loop
      vertex -4.45503 12.27 8
      vertex -4.6194 11.9134 0
      vertex -4.6194 11.9134 8
    endloop
  endfacet
  facet normal 0.962455 -0.271441 0
    outer loop
      vertex 4.75528 -11.5451 8
      vertex 4.86185 -11.1672 0
      vertex 4.86185 -11.1672 8
    endloop
  endfacet
  facet normal 0.962455 -0.271441 0
    outer loop
      vertex 4.86185 -11.1672 0
      vertex 4.75528 -11.5451 8
      vertex 4.75528 -11.5451 0
    endloop
  endfacet
  facet normal -0.195089 -0.980786 0
    outer loop
      vertex -1.16723 -14.8618 0
      vertex -0.782172 -14.9384 8
      vertex -1.16723 -14.8618 8
    endloop
  endfacet
  facet normal -0.195089 -0.980786 -0
    outer loop
      vertex -0.782172 -14.9384 8
      vertex -1.16723 -14.8618 0
      vertex -0.782172 -14.9384 0
    endloop
  endfacet
  facet normal 0.938191 0.346117 0
    outer loop
      vertex 4.75528 11.5451 8
      vertex 4.6194 11.9134 0
      vertex 4.6194 11.9134 8
    endloop
  endfacet
  facet normal 0.938191 0.346117 0
    outer loop
      vertex 4.6194 11.9134 0
      vertex 4.75528 11.5451 8
      vertex 4.75528 11.5451 0
    endloop
  endfacet
  facet normal 0.488621 0.872496 -0
    outer loop
      vertex 2.61249 14.2632 0
      vertex 2.26995 14.455 8
      vertex 2.61249 14.2632 8
    endloop
  endfacet
  facet normal 0.488621 0.872496 0
    outer loop
      vertex 2.26995 14.455 8
      vertex 2.61249 14.2632 0
      vertex 2.26995 14.455 0
    endloop
  endfacet
  facet normal -0.117539 0.993068 0
    outer loop
      vertex -0.392295 14.9846 0
      vertex -0.782172 14.9384 8
      vertex -0.392295 14.9846 8
    endloop
  endfacet
  facet normal -0.117539 0.993068 0
    outer loop
      vertex -0.782172 14.9384 8
      vertex -0.392295 14.9846 0
      vertex -0.782172 14.9384 0
    endloop
  endfacet
  facet normal -0.785316 0.619095 0
    outer loop
      vertex -4.04508 12.9389 0
      vertex -3.80203 13.2472 8
      vertex -3.80203 13.2472 0
    endloop
  endfacet
  facet normal -0.785316 0.619095 0
    outer loop
      vertex -3.80203 13.2472 8
      vertex -4.04508 12.9389 0
      vertex -4.04508 12.9389 8
    endloop
  endfacet
  facet normal -0.678801 0.734323 0
    outer loop
      vertex -3.24724 13.802 0
      vertex -3.53553 13.5355 8
      vertex -3.24724 13.802 8
    endloop
  endfacet
  facet normal -0.678801 0.734323 0
    outer loop
      vertex -3.53553 13.5355 8
      vertex -3.24724 13.802 0
      vertex -3.53553 13.5355 0
    endloop
  endfacet
  facet normal -0.938191 0.346117 0
    outer loop
      vertex -4.75528 11.5451 0
      vertex -4.6194 11.9134 8
      vertex -4.6194 11.9134 0
    endloop
  endfacet
  facet normal -0.938191 0.346117 0
    outer loop
      vertex -4.6194 11.9134 8
      vertex -4.75528 11.5451 0
      vertex -4.75528 11.5451 8
    endloop
  endfacet
  facet normal -0.993068 0.117538 0
    outer loop
      vertex -4.98459 10.3923 0
      vertex -4.93844 10.7822 8
      vertex -4.93844 10.7822 0
    endloop
  endfacet
  facet normal -0.993068 0.117538 0
    outer loop
      vertex -4.93844 10.7822 8
      vertex -4.98459 10.3923 0
      vertex -4.98459 10.3923 8
    endloop
  endfacet
  facet normal -0.999229 0.0392597 0
    outer loop
      vertex -5 10 0
      vertex -4.98459 10.3923 8
      vertex -4.98459 10.3923 0
    endloop
  endfacet
  facet normal -0.999229 0.0392597 0
    outer loop
      vertex -4.98459 10.3923 8
      vertex -5 10 0
      vertex -5 10 8
    endloop
  endfacet
  facet normal 0.908144 -0.418659 0
    outer loop
      vertex 4.45503 -12.27 8
      vertex 4.6194 -11.9134 0
      vertex 4.6194 -11.9134 8
    endloop
  endfacet
  facet normal 0.908144 -0.418659 0
    outer loop
      vertex 4.6194 -11.9134 0
      vertex 4.45503 -12.27 8
      vertex 4.45503 -12.27 0
    endloop
  endfacet
  facet normal 0.999229 -0.0392597 0
    outer loop
      vertex 4.98459 -10.3923 8
      vertex 5 -10 0
      vertex 5 -10 8
    endloop
  endfacet
  facet normal 0.999229 -0.0392597 0
    outer loop
      vertex 5 -10 0
      vertex 4.98459 -10.3923 8
      vertex 4.98459 -10.3923 0
    endloop
  endfacet
  facet normal 0.993068 -0.117538 0
    outer loop
      vertex 4.93844 -10.7822 8
      vertex 4.98459 -10.3923 0
      vertex 4.98459 -10.3923 8
    endloop
  endfacet
  facet normal 0.993068 -0.117538 0
    outer loop
      vertex 4.98459 -10.3923 0
      vertex 4.93844 -10.7822 8
      vertex 4.93844 -10.7822 0
    endloop
  endfacet
  facet normal 0.938191 -0.346117 0
    outer loop
      vertex 4.6194 -11.9134 8
      vertex 4.75528 -11.5451 0
      vertex 4.75528 -11.5451 8
    endloop
  endfacet
  facet normal 0.938191 -0.346117 0
    outer loop
      vertex 4.75528 -11.5451 0
      vertex 4.6194 -11.9134 8
      vertex 4.6194 -11.9134 0
    endloop
  endfacet
  facet normal 0.872495 -0.488622 0
    outer loop
      vertex 4.2632 -12.6125 8
      vertex 4.45503 -12.27 0
      vertex 4.45503 -12.27 8
    endloop
  endfacet
  facet normal 0.872495 -0.488622 0
    outer loop
      vertex 4.45503 -12.27 0
      vertex 4.2632 -12.6125 8
      vertex 4.2632 -12.6125 0
    endloop
  endfacet
  facet normal -0.938191 -0.346117 0
    outer loop
      vertex -4.6194 -11.9134 0
      vertex -4.75528 -11.5451 8
      vertex -4.75528 -11.5451 0
    endloop
  endfacet
  facet normal -0.938191 -0.346117 0
    outer loop
      vertex -4.75528 -11.5451 8
      vertex -4.6194 -11.9134 0
      vertex -4.6194 -11.9134 8
    endloop
  endfacet
  facet normal 0.980785 0.19509 0
    outer loop
      vertex 4.93844 10.7822 8
      vertex 4.86185 11.1672 0
      vertex 4.86185 11.1672 8
    endloop
  endfacet
  facet normal 0.980785 0.19509 0
    outer loop
      vertex 4.86185 11.1672 0
      vertex 4.93844 10.7822 8
      vertex 4.93844 10.7822 0
    endloop
  endfacet
  facet normal 0.962455 0.271441 0
    outer loop
      vertex 4.86185 11.1672 8
      vertex 4.75528 11.5451 0
      vertex 4.75528 11.5451 8
    endloop
  endfacet
  facet normal 0.962455 0.271441 0
    outer loop
      vertex 4.75528 11.5451 0
      vertex 4.86185 11.1672 8
      vertex 4.86185 11.1672 0
    endloop
  endfacet
  facet normal 0.734323 0.678801 0
    outer loop
      vertex 3.80203 13.2472 8
      vertex 3.53553 13.5355 0
      vertex 3.53553 13.5355 8
    endloop
  endfacet
  facet normal 0.734323 0.678801 0
    outer loop
      vertex 3.53553 13.5355 0
      vertex 3.80203 13.2472 8
      vertex 3.80203 13.2472 0
    endloop
  endfacet
  facet normal 0.785316 0.619095 0
    outer loop
      vertex 4.04508 12.9389 8
      vertex 3.80203 13.2472 0
      vertex 3.80203 13.2472 8
    endloop
  endfacet
  facet normal 0.785316 0.619095 0
    outer loop
      vertex 3.80203 13.2472 0
      vertex 4.04508 12.9389 8
      vertex 4.04508 12.9389 0
    endloop
  endfacet
  facet normal 0.872495 0.488622 0
    outer loop
      vertex 4.45503 12.27 8
      vertex 4.2632 12.6125 0
      vertex 4.2632 12.6125 8
    endloop
  endfacet
  facet normal 0.872495 0.488622 0
    outer loop
      vertex 4.2632 12.6125 0
      vertex 4.45503 12.27 8
      vertex 4.45503 12.27 0
    endloop
  endfacet
  facet normal 0.619094 0.785317 -0
    outer loop
      vertex 3.24724 13.802 0
      vertex 2.93893 14.0451 8
      vertex 3.24724 13.802 8
    endloop
  endfacet
  facet normal 0.619094 0.785317 0
    outer loop
      vertex 2.93893 14.0451 8
      vertex 3.24724 13.802 0
      vertex 2.93893 14.0451 0
    endloop
  endfacet
  facet normal 0.55557 0.83147 -0
    outer loop
      vertex 2.93893 14.0451 0
      vertex 2.61249 14.2632 8
      vertex 2.93893 14.0451 8
    endloop
  endfacet
  facet normal 0.55557 0.83147 0
    outer loop
      vertex 2.61249 14.2632 8
      vertex 2.93893 14.0451 0
      vertex 2.61249 14.2632 0
    endloop
  endfacet
  facet normal 0.346116 0.938192 -0
    outer loop
      vertex 1.91342 14.6194 0
      vertex 1.54508 14.7553 8
      vertex 1.91342 14.6194 8
    endloop
  endfacet
  facet normal 0.346116 0.938192 0
    outer loop
      vertex 1.54508 14.7553 8
      vertex 1.91342 14.6194 0
      vertex 1.54508 14.7553 0
    endloop
  endfacet
  facet normal 0.271441 0.962455 -0
    outer loop
      vertex 1.54508 14.7553 0
      vertex 1.16723 14.8618 8
      vertex 1.54508 14.7553 8
    endloop
  endfacet
  facet normal 0.271441 0.962455 0
    outer loop
      vertex 1.16723 14.8618 8
      vertex 1.54508 14.7553 0
      vertex 1.16723 14.8618 0
    endloop
  endfacet
  facet normal 0.418661 0.908142 -0
    outer loop
      vertex 2.26995 14.455 0
      vertex 1.91342 14.6194 8
      vertex 2.26995 14.455 8
    endloop
  endfacet
  facet normal 0.418661 0.908142 0
    outer loop
      vertex 1.91342 14.6194 8
      vertex 2.26995 14.455 0
      vertex 1.91342 14.6194 0
    endloop
  endfacet
  facet normal 0.195089 0.980786 -0
    outer loop
      vertex 1.16723 14.8618 0
      vertex 0.782172 14.9384 8
      vertex 1.16723 14.8618 8
    endloop
  endfacet
  facet normal 0.195089 0.980786 0
    outer loop
      vertex 0.782172 14.9384 8
      vertex 1.16723 14.8618 0
      vertex 0.782172 14.9384 0
    endloop
  endfacet
  facet normal 0.0392597 0.999229 -0
    outer loop
      vertex 0.392295 14.9846 0
      vertex 3.06162e-16 15 8
      vertex 0.392295 14.9846 8
    endloop
  endfacet
  facet normal 0.0392597 0.999229 0
    outer loop
      vertex 3.06162e-16 15 8
      vertex 0.392295 14.9846 0
      vertex 3.06162e-16 15 0
    endloop
  endfacet
  facet normal -0.872495 0.488622 0
    outer loop
      vertex -4.45503 12.27 0
      vertex -4.2632 12.6125 8
      vertex -4.2632 12.6125 0
    endloop
  endfacet
  facet normal -0.872495 0.488622 0
    outer loop
      vertex -4.2632 12.6125 8
      vertex -4.45503 12.27 0
      vertex -4.45503 12.27 8
    endloop
  endfacet
  facet normal -0.0392597 0.999229 0
    outer loop
      vertex 3.06162e-16 15 0
      vertex -0.392295 14.9846 8
      vertex 3.06162e-16 15 8
    endloop
  endfacet
  facet normal -0.0392597 0.999229 0
    outer loop
      vertex -0.392295 14.9846 8
      vertex 3.06162e-16 15 0
      vertex -0.392295 14.9846 0
    endloop
  endfacet
  facet normal -0.271441 0.962455 0
    outer loop
      vertex -1.16723 14.8618 0
      vertex -1.54508 14.7553 8
      vertex -1.16723 14.8618 8
    endloop
  endfacet
  facet normal -0.271441 0.962455 0
    outer loop
      vertex -1.54508 14.7553 8
      vertex -1.16723 14.8618 0
      vertex -1.54508 14.7553 0
    endloop
  endfacet
  facet normal -0.346116 0.938192 0
    outer loop
      vertex -1.54508 14.7553 0
      vertex -1.91342 14.6194 8
      vertex -1.54508 14.7553 8
    endloop
  endfacet
  facet normal -0.346116 0.938192 0
    outer loop
      vertex -1.91342 14.6194 8
      vertex -1.54508 14.7553 0
      vertex -1.91342 14.6194 0
    endloop
  endfacet
  facet normal -0.195089 0.980786 0
    outer loop
      vertex -0.782172 14.9384 0
      vertex -1.16723 14.8618 8
      vertex -0.782172 14.9384 8
    endloop
  endfacet
  facet normal -0.195089 0.980786 0
    outer loop
      vertex -1.16723 14.8618 8
      vertex -0.782172 14.9384 0
      vertex -1.16723 14.8618 0
    endloop
  endfacet
  facet normal -0.55557 0.83147 0
    outer loop
      vertex -2.61249 14.2632 0
      vertex -2.93893 14.0451 8
      vertex -2.61249 14.2632 8
    endloop
  endfacet
  facet normal -0.55557 0.83147 0
    outer loop
      vertex -2.93893 14.0451 8
      vertex -2.61249 14.2632 0
      vertex -2.93893 14.0451 0
    endloop
  endfacet
  facet normal -0.488621 0.872496 0
    outer loop
      vertex -2.26995 14.455 0
      vertex -2.61249 14.2632 8
      vertex -2.26995 14.455 8
    endloop
  endfacet
  facet normal -0.488621 0.872496 0
    outer loop
      vertex -2.61249 14.2632 8
      vertex -2.26995 14.455 0
      vertex -2.61249 14.2632 0
    endloop
  endfacet
  facet normal -0.83147 0.555569 0
    outer loop
      vertex -4.2632 12.6125 0
      vertex -4.04508 12.9389 8
      vertex -4.04508 12.9389 0
    endloop
  endfacet
  facet normal -0.83147 0.555569 0
    outer loop
      vertex -4.04508 12.9389 8
      vertex -4.2632 12.6125 0
      vertex -4.2632 12.6125 8
    endloop
  endfacet
  facet normal -0.734323 0.678801 0
    outer loop
      vertex -3.80203 13.2472 0
      vertex -3.53553 13.5355 8
      vertex -3.53553 13.5355 0
    endloop
  endfacet
  facet normal -0.734323 0.678801 0
    outer loop
      vertex -3.53553 13.5355 8
      vertex -3.80203 13.2472 0
      vertex -3.80203 13.2472 8
    endloop
  endfacet
  facet normal -0.619094 0.785317 0
    outer loop
      vertex -2.93893 14.0451 0
      vertex -3.24724 13.802 8
      vertex -2.93893 14.0451 8
    endloop
  endfacet
  facet normal -0.619094 0.785317 0
    outer loop
      vertex -3.24724 13.802 8
      vertex -2.93893 14.0451 0
      vertex -3.24724 13.802 0
    endloop
  endfacet
  facet normal 0.785316 -0.619095 0
    outer loop
      vertex 3.80203 -13.2472 8
      vertex 4.04508 -12.9389 0
      vertex 4.04508 -12.9389 8
    endloop
  endfacet
  facet normal 0.785316 -0.619095 0
    outer loop
      vertex 4.04508 -12.9389 0
      vertex 3.80203 -13.2472 8
      vertex 3.80203 -13.2472 0
    endloop
  endfacet
  facet normal 0.488621 -0.872496 0
    outer loop
      vertex 2.26995 -14.455 0
      vertex 2.61249 -14.2632 8
      vertex 2.26995 -14.455 8
    endloop
  endfacet
  facet normal 0.488621 -0.872496 0
    outer loop
      vertex 2.61249 -14.2632 8
      vertex 2.26995 -14.455 0
      vertex 2.61249 -14.2632 0
    endloop
  endfacet
  facet normal 0.734323 -0.678801 0
    outer loop
      vertex 3.53553 -13.5355 8
      vertex 3.80203 -13.2472 0
      vertex 3.80203 -13.2472 8
    endloop
  endfacet
  facet normal 0.734323 -0.678801 0
    outer loop
      vertex 3.80203 -13.2472 0
      vertex 3.53553 -13.5355 8
      vertex 3.53553 -13.5355 0
    endloop
  endfacet
  facet normal 0.83147 -0.555569 0
    outer loop
      vertex 4.04508 -12.9389 8
      vertex 4.2632 -12.6125 0
      vertex 4.2632 -12.6125 8
    endloop
  endfacet
  facet normal 0.83147 -0.555569 0
    outer loop
      vertex 4.2632 -12.6125 0
      vertex 4.04508 -12.9389 8
      vertex 4.04508 -12.9389 0
    endloop
  endfacet
  facet normal 0.619094 -0.785317 0
    outer loop
      vertex 2.93893 -14.0451 0
      vertex 3.24724 -13.802 8
      vertex 2.93893 -14.0451 8
    endloop
  endfacet
  facet normal 0.619094 -0.785317 0
    outer loop
      vertex 3.24724 -13.802 8
      vertex 2.93893 -14.0451 0
      vertex 3.24724 -13.802 0
    endloop
  endfacet
  facet normal 0.271441 -0.962455 0
    outer loop
      vertex 1.16723 -14.8618 0
      vertex 1.54508 -14.7553 8
      vertex 1.16723 -14.8618 8
    endloop
  endfacet
  facet normal 0.271441 -0.962455 0
    outer loop
      vertex 1.54508 -14.7553 8
      vertex 1.16723 -14.8618 0
      vertex 1.54508 -14.7553 0
    endloop
  endfacet
  facet normal 0.195089 -0.980786 0
    outer loop
      vertex 0.782172 -14.9384 0
      vertex 1.16723 -14.8618 8
      vertex 0.782172 -14.9384 8
    endloop
  endfacet
  facet normal 0.195089 -0.980786 0
    outer loop
      vertex 1.16723 -14.8618 8
      vertex 0.782172 -14.9384 0
      vertex 1.16723 -14.8618 0
    endloop
  endfacet
  facet normal 0.346116 -0.938192 0
    outer loop
      vertex 1.54508 -14.7553 0
      vertex 1.91342 -14.6194 8
      vertex 1.54508 -14.7553 8
    endloop
  endfacet
  facet normal 0.346116 -0.938192 0
    outer loop
      vertex 1.91342 -14.6194 8
      vertex 1.54508 -14.7553 0
      vertex 1.91342 -14.6194 0
    endloop
  endfacet
  facet normal 0.0392597 -0.999229 0
    outer loop
      vertex -9.18485e-16 -15 0
      vertex 0.392295 -14.9846 8
      vertex -9.18485e-16 -15 8
    endloop
  endfacet
  facet normal 0.0392597 -0.999229 0
    outer loop
      vertex 0.392295 -14.9846 8
      vertex -9.18485e-16 -15 0
      vertex 0.392295 -14.9846 0
    endloop
  endfacet
  facet normal 0.117539 -0.993068 0
    outer loop
      vertex 0.392295 -14.9846 0
      vertex 0.782172 -14.9384 8
      vertex 0.392295 -14.9846 8
    endloop
  endfacet
  facet normal 0.117539 -0.993068 0
    outer loop
      vertex 0.782172 -14.9384 8
      vertex 0.392295 -14.9846 0
      vertex 0.782172 -14.9384 0
    endloop
  endfacet
  facet normal -0.872495 -0.488622 0
    outer loop
      vertex -4.2632 -12.6125 0
      vertex -4.45503 -12.27 8
      vertex -4.45503 -12.27 0
    endloop
  endfacet
  facet normal -0.872495 -0.488622 0
    outer loop
      vertex -4.45503 -12.27 8
      vertex -4.2632 -12.6125 0
      vertex -4.2632 -12.6125 8
    endloop
  endfacet
  facet normal -0.908144 -0.418659 0
    outer loop
      vertex -4.45503 -12.27 0
      vertex -4.6194 -11.9134 8
      vertex -4.6194 -11.9134 0
    endloop
  endfacet
  facet normal -0.908144 -0.418659 0
    outer loop
      vertex -4.6194 -11.9134 8
      vertex -4.45503 -12.27 0
      vertex -4.45503 -12.27 8
    endloop
  endfacet
  facet normal -0.83147 -0.555569 0
    outer loop
      vertex -4.04508 -12.9389 0
      vertex -4.2632 -12.6125 8
      vertex -4.2632 -12.6125 0
    endloop
  endfacet
  facet normal -0.83147 -0.555569 0
    outer loop
      vertex -4.2632 -12.6125 8
      vertex -4.04508 -12.9389 0
      vertex -4.04508 -12.9389 8
    endloop
  endfacet
  facet normal -0.993068 -0.117538 0
    outer loop
      vertex -4.93844 -10.7822 0
      vertex -4.98459 -10.3923 8
      vertex -4.98459 -10.3923 0
    endloop
  endfacet
  facet normal -0.993068 -0.117538 0
    outer loop
      vertex -4.98459 -10.3923 8
      vertex -4.93844 -10.7822 0
      vertex -4.93844 -10.7822 8
    endloop
  endfacet
  facet normal -0.962455 -0.271441 0
    outer loop
      vertex -4.75528 -11.5451 0
      vertex -4.86185 -11.1672 8
      vertex -4.86185 -11.1672 0
    endloop
  endfacet
  facet normal -0.962455 -0.271441 0
    outer loop
      vertex -4.86185 -11.1672 8
      vertex -4.75528 -11.5451 0
      vertex -4.75528 -11.5451 8
    endloop
  endfacet
  facet normal -0.980785 -0.19509 0
    outer loop
      vertex -4.86185 -11.1672 0
      vertex -4.93844 -10.7822 8
      vertex -4.93844 -10.7822 0
    endloop
  endfacet
  facet normal -0.980785 -0.19509 0
    outer loop
      vertex -4.93844 -10.7822 8
      vertex -4.86185 -11.1672 0
      vertex -4.86185 -11.1672 8
    endloop
  endfacet
  facet normal -0.619094 -0.785317 0
    outer loop
      vertex -3.24724 -13.802 0
      vertex -2.93893 -14.0451 8
      vertex -3.24724 -13.802 8
    endloop
  endfacet
  facet normal -0.619094 -0.785317 -0
    outer loop
      vertex -2.93893 -14.0451 8
      vertex -3.24724 -13.802 0
      vertex -2.93893 -14.0451 0
    endloop
  endfacet
  facet normal -0.55557 -0.83147 0
    outer loop
      vertex -2.93893 -14.0451 0
      vertex -2.61249 -14.2632 8
      vertex -2.93893 -14.0451 8
    endloop
  endfacet
  facet normal -0.55557 -0.83147 -0
    outer loop
      vertex -2.61249 -14.2632 8
      vertex -2.93893 -14.0451 0
      vertex -2.61249 -14.2632 0
    endloop
  endfacet
  facet normal -0.734323 -0.678801 0
    outer loop
      vertex -3.53553 -13.5355 0
      vertex -3.80203 -13.2472 8
      vertex -3.80203 -13.2472 0
    endloop
  endfacet
  facet normal -0.734323 -0.678801 0
    outer loop
      vertex -3.80203 -13.2472 8
      vertex -3.53553 -13.5355 0
      vertex -3.53553 -13.5355 8
    endloop
  endfacet
  facet normal -0.346116 -0.938192 0
    outer loop
      vertex -1.91342 -14.6194 0
      vertex -1.54508 -14.7553 8
      vertex -1.91342 -14.6194 8
    endloop
  endfacet
  facet normal -0.346116 -0.938192 -0
    outer loop
      vertex -1.54508 -14.7553 8
      vertex -1.91342 -14.6194 0
      vertex -1.54508 -14.7553 0
    endloop
  endfacet
  facet normal -0.488621 -0.872496 0
    outer loop
      vertex -2.61249 -14.2632 0
      vertex -2.26995 -14.455 8
      vertex -2.61249 -14.2632 8
    endloop
  endfacet
  facet normal -0.488621 -0.872496 -0
    outer loop
      vertex -2.26995 -14.455 8
      vertex -2.61249 -14.2632 0
      vertex -2.26995 -14.455 0
    endloop
  endfacet
  facet normal -0.271441 -0.962455 0
    outer loop
      vertex -1.54508 -14.7553 0
      vertex -1.16723 -14.8618 8
      vertex -1.54508 -14.7553 8
    endloop
  endfacet
  facet normal -0.271441 -0.962455 -0
    outer loop
      vertex -1.16723 -14.8618 8
      vertex -1.54508 -14.7553 0
      vertex -1.16723 -14.8618 0
    endloop
  endfacet
  facet normal 0.993068 0.117538 0
    outer loop
      vertex 4.98459 10.3923 8
      vertex 4.93844 10.7822 0
      vertex 4.93844 10.7822 8
    endloop
  endfacet
  facet normal 0.993068 0.117538 0
    outer loop
      vertex 4.93844 10.7822 0
      vertex 4.98459 10.3923 8
      vertex 4.98459 10.3923 0
    endloop
  endfacet
  facet normal 0.908144 0.418659 0
    outer loop
      vertex 4.6194 11.9134 8
      vertex 4.45503 12.27 0
      vertex 4.45503 12.27 8
    endloop
  endfacet
  facet normal 0.908144 0.418659 0
    outer loop
      vertex 4.45503 12.27 0
      vertex 4.6194 11.9134 8
      vertex 4.6194 11.9134 0
    endloop
  endfacet
  facet normal 0.55557 -0.83147 0
    outer loop
      vertex 2.61249 -14.2632 0
      vertex 2.93893 -14.0451 8
      vertex 2.61249 -14.2632 8
    endloop
  endfacet
  facet normal 0.55557 -0.83147 0
    outer loop
      vertex 2.93893 -14.0451 8
      vertex 2.61249 -14.2632 0
      vertex 2.93893 -14.0451 0
    endloop
  endfacet
  facet normal 0.678801 -0.734323 0
    outer loop
      vertex 3.24724 -13.802 0
      vertex 3.53553 -13.5355 8
      vertex 3.24724 -13.802 8
    endloop
  endfacet
  facet normal 0.678801 -0.734323 0
    outer loop
      vertex 3.53553 -13.5355 8
      vertex 3.24724 -13.802 0
      vertex 3.53553 -13.5355 0
    endloop
  endfacet
  facet normal -0.0392597 -0.999229 0
    outer loop
      vertex -0.392295 -14.9846 0
      vertex -9.18485e-16 -15 8
      vertex -0.392295 -14.9846 8
    endloop
  endfacet
  facet normal -0.0392597 -0.999229 -0
    outer loop
      vertex -9.18485e-16 -15 8
      vertex -0.392295 -14.9846 0
      vertex -9.18485e-16 -15 0
    endloop
  endfacet
  facet normal -0.117539 -0.993068 0
    outer loop
      vertex -0.782172 -14.9384 0
      vertex -0.392295 -14.9846 8
      vertex -0.782172 -14.9384 8
    endloop
  endfacet
  facet normal -0.117539 -0.993068 -0
    outer loop
      vertex -0.392295 -14.9846 8
      vertex -0.782172 -14.9384 0
      vertex -0.392295 -14.9846 0
    endloop
  endfacet
  facet normal -0.785316 -0.619095 0
    outer loop
      vertex -3.80203 -13.2472 0
      vertex -4.04508 -12.9389 8
      vertex -4.04508 -12.9389 0
    endloop
  endfacet
  facet normal -0.785316 -0.619095 0
    outer loop
      vertex -4.04508 -12.9389 8
      vertex -3.80203 -13.2472 0
      vertex -3.80203 -13.2472 8
    endloop
  endfacet
  facet normal -0.678801 -0.734323 0
    outer loop
      vertex -3.53553 -13.5355 0
      vertex -3.24724 -13.802 8
      vertex -3.53553 -13.5355 8
    endloop
  endfacet
  facet normal -0.678801 -0.734323 -0
    outer loop
      vertex -3.24724 -13.802 8
      vertex -3.53553 -13.5355 0
      vertex -3.24724 -13.802 0
    endloop
  endfacet
  facet normal -0.418661 -0.908142 0
    outer loop
      vertex -2.26995 -14.455 0
      vertex -1.91342 -14.6194 8
      vertex -2.26995 -14.455 8
    endloop
  endfacet
  facet normal -0.418661 -0.908142 -0
    outer loop
      vertex -1.91342 -14.6194 8
      vertex -2.26995 -14.455 0
      vertex -1.91342 -14.6194 0
    endloop
  endfacet
  facet normal -0.587786 -0.809016 0
    outer loop
      vertex 1.1 11.9053 0
      vertex 1.47209 11.6349 8
      vertex 1.1 11.9053 8
    endloop
  endfacet
  facet normal -0.587786 -0.809016 -0
    outer loop
      vertex 1.47209 11.6349 8
      vertex 1.1 11.9053 0
      vertex 1.47209 11.6349 0
    endloop
  endfacet
  facet normal -0.994522 0.104529 0
    outer loop
      vertex 2.15192 9.54259 0
      vertex 2.2 10 8
      vertex 2.2 10 0
    endloop
  endfacet
  facet normal -0.994522 0.104529 0
    outer loop
      vertex 2.2 10 8
      vertex 2.15192 9.54259 0
      vertex 2.15192 9.54259 8
    endloop
  endfacet
  facet normal 0 1 -0
    outer loop
      vertex 0.229963 7.81205 0
      vertex -0.229963 7.81205 8
      vertex 0.229963 7.81205 8
    endloop
  endfacet
  facet normal 0 1 0
    outer loop
      vertex -0.229963 7.81205 8
      vertex 0.229963 7.81205 0
      vertex -0.229963 7.81205 0
    endloop
  endfacet
  facet normal -0.951056 -0.309017 0
    outer loop
      vertex 2.15192 10.4574 0
      vertex 2.0098 10.8948 8
      vertex 2.0098 10.8948 0
    endloop
  endfacet
  facet normal -0.951056 -0.309017 0
    outer loop
      vertex 2.0098 10.8948 8
      vertex 2.15192 10.4574 0
      vertex 2.15192 10.4574 8
    endloop
  endfacet
  facet normal 0.406736 -0.913546 0
    outer loop
      vertex -1.1 11.9053 0
      vertex -0.679837 12.0923 8
      vertex -1.1 11.9053 8
    endloop
  endfacet
  facet normal 0.406736 -0.913546 0
    outer loop
      vertex -0.679837 12.0923 8
      vertex -1.1 11.9053 0
      vertex -0.679837 12.0923 0
    endloop
  endfacet
  facet normal 0.951056 -0.309017 0
    outer loop
      vertex -2.15192 10.4574 8
      vertex -2.0098 10.8948 0
      vertex -2.0098 10.8948 8
    endloop
  endfacet
  facet normal 0.951056 -0.309017 0
    outer loop
      vertex -2.0098 10.8948 0
      vertex -2.15192 10.4574 8
      vertex -2.15192 10.4574 0
    endloop
  endfacet
  facet normal 0.587786 0.809016 -0
    outer loop
      vertex -1.1 8.09474 0
      vertex -1.47209 8.36508 8
      vertex -1.1 8.09474 8
    endloop
  endfacet
  facet normal 0.587786 0.809016 0
    outer loop
      vertex -1.47209 8.36508 8
      vertex -1.1 8.09474 0
      vertex -1.47209 8.36508 0
    endloop
  endfacet
  facet normal -0.866026 -0.499999 0
    outer loop
      vertex 2.0098 10.8948 0
      vertex 1.77984 11.2931 8
      vertex 1.77984 11.2931 0
    endloop
  endfacet
  facet normal -0.866026 -0.499999 0
    outer loop
      vertex 1.77984 11.2931 8
      vertex 2.0098 10.8948 0
      vertex 2.0098 10.8948 8
    endloop
  endfacet
  facet normal -0.743144 -0.669131 0
    outer loop
      vertex 1.77984 11.2931 0
      vertex 1.47209 11.6349 8
      vertex 1.47209 11.6349 0
    endloop
  endfacet
  facet normal -0.743144 -0.669131 0
    outer loop
      vertex 1.47209 11.6349 8
      vertex 1.77984 11.2931 0
      vertex 1.77984 11.2931 8
    endloop
  endfacet
  facet normal -0.406736 -0.913546 0
    outer loop
      vertex 0.679837 12.0923 0
      vertex 1.1 11.9053 8
      vertex 0.679837 12.0923 8
    endloop
  endfacet
  facet normal -0.406736 -0.913546 -0
    outer loop
      vertex 1.1 11.9053 8
      vertex 0.679837 12.0923 0
      vertex 1.1 11.9053 0
    endloop
  endfacet
  facet normal 0 -1 0
    outer loop
      vertex -0.229963 12.1879 0
      vertex 0.229963 12.1879 8
      vertex -0.229963 12.1879 8
    endloop
  endfacet
  facet normal 0 -1 -0
    outer loop
      vertex 0.229963 12.1879 8
      vertex -0.229963 12.1879 0
      vertex 0.229963 12.1879 0
    endloop
  endfacet
  facet normal -0.207912 -0.978148 0
    outer loop
      vertex 0.229963 12.1879 0
      vertex 0.679837 12.0923 8
      vertex 0.229963 12.1879 8
    endloop
  endfacet
  facet normal -0.207912 -0.978148 -0
    outer loop
      vertex 0.679837 12.0923 8
      vertex 0.229963 12.1879 0
      vertex 0.679837 12.0923 0
    endloop
  endfacet
  facet normal 0.994522 0.104529 0
    outer loop
      vertex -2.15192 9.54259 8
      vertex -2.2 10 0
      vertex -2.2 10 8
    endloop
  endfacet
  facet normal 0.994522 0.104529 0
    outer loop
      vertex -2.2 10 0
      vertex -2.15192 9.54259 8
      vertex -2.15192 9.54259 0
    endloop
  endfacet
  facet normal 0.866026 -0.499999 0
    outer loop
      vertex -2.0098 10.8948 8
      vertex -1.77984 11.2931 0
      vertex -1.77984 11.2931 8
    endloop
  endfacet
  facet normal 0.866026 -0.499999 0
    outer loop
      vertex -1.77984 11.2931 0
      vertex -2.0098 10.8948 8
      vertex -2.0098 10.8948 0
    endloop
  endfacet
  facet normal 0.587786 -0.809016 0
    outer loop
      vertex -1.47209 11.6349 0
      vertex -1.1 11.9053 8
      vertex -1.47209 11.6349 8
    endloop
  endfacet
  facet normal 0.587786 -0.809016 0
    outer loop
      vertex -1.1 11.9053 8
      vertex -1.47209 11.6349 0
      vertex -1.1 11.9053 0
    endloop
  endfacet
  facet normal 0.207912 -0.978148 0
    outer loop
      vertex -0.679837 12.0923 0
      vertex -0.229963 12.1879 8
      vertex -0.679837 12.0923 8
    endloop
  endfacet
  facet normal 0.207912 -0.978148 0
    outer loop
      vertex -0.229963 12.1879 8
      vertex -0.679837 12.0923 0
      vertex -0.229963 12.1879 0
    endloop
  endfacet
  facet normal 0.743144 -0.669131 0
    outer loop
      vertex -1.77984 11.2931 8
      vertex -1.47209 11.6349 0
      vertex -1.47209 11.6349 8
    endloop
  endfacet
  facet normal 0.743144 -0.669131 0
    outer loop
      vertex -1.47209 11.6349 0
      vertex -1.77984 11.2931 8
      vertex -1.77984 11.2931 0
    endloop
  endfacet
  facet normal -0.994522 -0.104529 0
    outer loop
      vertex 2.2 10 0
      vertex 2.15192 10.4574 8
      vertex 2.15192 10.4574 0
    endloop
  endfacet
  facet normal -0.994522 -0.104529 0
    outer loop
      vertex 2.15192 10.4574 8
      vertex 2.2 10 0
      vertex 2.2 10 8
    endloop
  endfacet
  facet normal -0.207912 0.978148 0
    outer loop
      vertex 0.679837 7.90768 0
      vertex 0.229963 7.81205 8
      vertex 0.679837 7.90768 8
    endloop
  endfacet
  facet normal -0.207912 0.978148 0
    outer loop
      vertex 0.229963 7.81205 8
      vertex 0.679837 7.90768 0
      vertex 0.229963 7.81205 0
    endloop
  endfacet
  facet normal -0.866026 0.499999 0
    outer loop
      vertex 1.77984 8.70687 0
      vertex 2.0098 9.10518 8
      vertex 2.0098 9.10518 0
    endloop
  endfacet
  facet normal -0.866026 0.499999 0
    outer loop
      vertex 2.0098 9.10518 8
      vertex 1.77984 8.70687 0
      vertex 1.77984 8.70687 8
    endloop
  endfacet
  facet normal -0.951056 0.309017 0
    outer loop
      vertex 2.0098 9.10518 0
      vertex 2.15192 9.54259 8
      vertex 2.15192 9.54259 0
    endloop
  endfacet
  facet normal -0.951056 0.309017 0
    outer loop
      vertex 2.15192 9.54259 8
      vertex 2.0098 9.10518 0
      vertex 2.0098 9.10518 8
    endloop
  endfacet
  facet normal -0.406736 0.913546 0
    outer loop
      vertex 1.1 8.09474 0
      vertex 0.679837 7.90768 8
      vertex 1.1 8.09474 8
    endloop
  endfacet
  facet normal -0.406736 0.913546 0
    outer loop
      vertex 0.679837 7.90768 8
      vertex 1.1 8.09474 0
      vertex 0.679837 7.90768 0
    endloop
  endfacet
  facet normal -0.587786 0.809016 0
    outer loop
      vertex 1.47209 8.36508 0
      vertex 1.1 8.09474 8
      vertex 1.47209 8.36508 8
    endloop
  endfacet
  facet normal -0.587786 0.809016 0
    outer loop
      vertex 1.1 8.09474 8
      vertex 1.47209 8.36508 0
      vertex 1.1 8.09474 0
    endloop
  endfacet
  facet normal 0.406736 0.913546 -0
    outer loop
      vertex -0.679837 7.90768 0
      vertex -1.1 8.09474 8
      vertex -0.679837 7.90768 8
    endloop
  endfacet
  facet normal 0.406736 0.913546 0
    outer loop
      vertex -1.1 8.09474 8
      vertex -0.679837 7.90768 0
      vertex -1.1 8.09474 0
    endloop
  endfacet
  facet normal 0.866026 0.499999 0
    outer loop
      vertex -1.77984 8.70687 8
      vertex -2.0098 9.10518 0
      vertex -2.0098 9.10518 8
    endloop
  endfacet
  facet normal 0.866026 0.499999 0
    outer loop
      vertex -2.0098 9.10518 0
      vertex -1.77984 8.70687 8
      vertex -1.77984 8.70687 0
    endloop
  endfacet
  facet normal 0.743144 0.669131 0
    outer loop
      vertex -1.47209 8.36508 8
      vertex -1.77984 8.70687 0
      vertex -1.77984 8.70687 8
    endloop
  endfacet
  facet normal 0.743144 0.669131 0
    outer loop
      vertex -1.77984 8.70687 0
      vertex -1.47209 8.36508 8
      vertex -1.47209 8.36508 0
    endloop
  endfacet
  facet normal 0.951056 0.309017 0
    outer loop
      vertex -2.0098 9.10518 8
      vertex -2.15192 9.54259 0
      vertex -2.15192 9.54259 8
    endloop
  endfacet
  facet normal 0.951056 0.309017 0
    outer loop
      vertex -2.15192 9.54259 0
      vertex -2.0098 9.10518 8
      vertex -2.0098 9.10518 0
    endloop
  endfacet
  facet normal 0.994522 -0.104529 0
    outer loop
      vertex -2.2 10 8
      vertex -2.15192 10.4574 0
      vertex -2.15192 10.4574 8
    endloop
  endfacet
  facet normal 0.994522 -0.104529 0
    outer loop
      vertex -2.15192 10.4574 0
      vertex -2.2 10 8
      vertex -2.2 10 0
    endloop
  endfacet
  facet normal -0.743144 0.669131 0
    outer loop
      vertex 1.47209 8.36508 0
      vertex 1.77984 8.70687 8
      vertex 1.77984 8.70687 0
    endloop
  endfacet
  facet normal -0.743144 0.669131 0
    outer loop
      vertex 1.77984 8.70687 8
      vertex 1.47209 8.36508 0
      vertex 1.47209 8.36508 8
    endloop
  endfacet
  facet normal 0.207912 0.978148 -0
    outer loop
      vertex -0.229963 7.81205 0
      vertex -0.679837 7.90768 8
      vertex -0.229963 7.81205 8
    endloop
  endfacet
  facet normal 0.207912 0.978148 0
    outer loop
      vertex -0.679837 7.90768 8
      vertex -0.229963 7.81205 0
      vertex -0.679837 7.90768 0
    endloop
  endfacet
  facet normal -0.587786 -0.809016 0
    outer loop
      vertex 1.1 -8.09474 0
      vertex 1.47209 -8.36508 8
      vertex 1.1 -8.09474 8
    endloop
  endfacet
  facet normal -0.587786 -0.809016 -0
    outer loop
      vertex 1.47209 -8.36508 8
      vertex 1.1 -8.09474 0
      vertex 1.47209 -8.36508 0
    endloop
  endfacet
  facet normal -0.994522 0.104529 0
    outer loop
      vertex 2.15192 -10.4574 0
      vertex 2.2 -10 8
      vertex 2.2 -10 0
    endloop
  endfacet
  facet normal -0.994522 0.104529 0
    outer loop
      vertex 2.2 -10 8
      vertex 2.15192 -10.4574 0
      vertex 2.15192 -10.4574 8
    endloop
  endfacet
  facet normal 0 1 -0
    outer loop
      vertex 0.229963 -12.1879 0
      vertex -0.229963 -12.1879 8
      vertex 0.229963 -12.1879 8
    endloop
  endfacet
  facet normal 0 1 0
    outer loop
      vertex -0.229963 -12.1879 8
      vertex 0.229963 -12.1879 0
      vertex -0.229963 -12.1879 0
    endloop
  endfacet
  facet normal -0.951056 -0.309017 0
    outer loop
      vertex 2.15192 -9.54259 0
      vertex 2.0098 -9.10518 8
      vertex 2.0098 -9.10518 0
    endloop
  endfacet
  facet normal -0.951056 -0.309017 0
    outer loop
      vertex 2.0098 -9.10518 8
      vertex 2.15192 -9.54259 0
      vertex 2.15192 -9.54259 8
    endloop
  endfacet
  facet normal 0.406736 -0.913546 0
    outer loop
      vertex -1.1 -8.09474 0
      vertex -0.679837 -7.90768 8
      vertex -1.1 -8.09474 8
    endloop
  endfacet
  facet normal 0.406736 -0.913546 0
    outer loop
      vertex -0.679837 -7.90768 8
      vertex -1.1 -8.09474 0
      vertex -0.679837 -7.90768 0
    endloop
  endfacet
  facet normal 0.951056 -0.309017 0
    outer loop
      vertex -2.15192 -9.54259 8
      vertex -2.0098 -9.10518 0
      vertex -2.0098 -9.10518 8
    endloop
  endfacet
  facet normal 0.951056 -0.309017 0
    outer loop
      vertex -2.0098 -9.10518 0
      vertex -2.15192 -9.54259 8
      vertex -2.15192 -9.54259 0
    endloop
  endfacet
  facet normal -0.866026 -0.499999 0
    outer loop
      vertex 2.0098 -9.10518 0
      vertex 1.77984 -8.70687 8
      vertex 1.77984 -8.70687 0
    endloop
  endfacet
  facet normal -0.866026 -0.499999 0
    outer loop
      vertex 1.77984 -8.70687 8
      vertex 2.0098 -9.10518 0
      vertex 2.0098 -9.10518 8
    endloop
  endfacet
  facet normal -0.743144 -0.669131 0
    outer loop
      vertex 1.77984 -8.70687 0
      vertex 1.47209 -8.36508 8
      vertex 1.47209 -8.36508 0
    endloop
  endfacet
  facet normal -0.743144 -0.669131 0
    outer loop
      vertex 1.47209 -8.36508 8
      vertex 1.77984 -8.70687 0
      vertex 1.77984 -8.70687 8
    endloop
  endfacet
  facet normal -0.406736 -0.913546 0
    outer loop
      vertex 0.679837 -7.90768 0
      vertex 1.1 -8.09474 8
      vertex 0.679837 -7.90768 8
    endloop
  endfacet
  facet normal -0.406736 -0.913546 -0
    outer loop
      vertex 1.1 -8.09474 8
      vertex 0.679837 -7.90768 0
      vertex 1.1 -8.09474 0
    endloop
  endfacet
  facet normal 0 -1 0
    outer loop
      vertex -0.229963 -7.81205 0
      vertex 0.229963 -7.81205 8
      vertex -0.229963 -7.81205 8
    endloop
  endfacet
  facet normal 0 -1 -0
    outer loop
      vertex 0.229963 -7.81205 8
      vertex -0.229963 -7.81205 0
      vertex 0.229963 -7.81205 0
    endloop
  endfacet
  facet normal -0.207912 -0.978148 0
    outer loop
      vertex 0.229963 -7.81205 0
      vertex 0.679837 -7.90768 8
      vertex 0.229963 -7.81205 8
    endloop
  endfacet
  facet normal -0.207912 -0.978148 -0
    outer loop
      vertex 0.679837 -7.90768 8
      vertex 0.229963 -7.81205 0
      vertex 0.679837 -7.90768 0
    endloop
  endfacet
  facet normal 0.994522 0.104529 0
    outer loop
      vertex -2.15192 -10.4574 8
      vertex -2.2 -10 0
      vertex -2.2 -10 8
    endloop
  endfacet
  facet normal 0.994522 0.104529 0
    outer loop
      vertex -2.2 -10 0
      vertex -2.15192 -10.4574 8
      vertex -2.15192 -10.4574 0
    endloop
  endfacet
  facet normal 0.866026 -0.499999 0
    outer loop
      vertex -2.0098 -9.10518 8
      vertex -1.77984 -8.70687 0
      vertex -1.77984 -8.70687 8
    endloop
  endfacet
  facet normal 0.866026 -0.499999 0
    outer loop
      vertex -1.77984 -8.70687 0
      vertex -2.0098 -9.10518 8
      vertex -2.0098 -9.10518 0
    endloop
  endfacet
  facet normal 0.587786 -0.809016 0
    outer loop
      vertex -1.47209 -8.36508 0
      vertex -1.1 -8.09474 8
      vertex -1.47209 -8.36508 8
    endloop
  endfacet
  facet normal 0.587786 -0.809016 0
    outer loop
      vertex -1.1 -8.09474 8
      vertex -1.47209 -8.36508 0
      vertex -1.1 -8.09474 0
    endloop
  endfacet
  facet normal 0.207912 -0.978148 0
    outer loop
      vertex -0.679837 -7.90768 0
      vertex -0.229963 -7.81205 8
      vertex -0.679837 -7.90768 8
    endloop
  endfacet
  facet normal 0.207912 -0.978148 0
    outer loop
      vertex -0.229963 -7.81205 8
      vertex -0.679837 -7.90768 0
      vertex -0.229963 -7.81205 0
    endloop
  endfacet
  facet normal 0.743144 -0.669131 0
    outer loop
      vertex -1.77984 -8.70687 8
      vertex -1.47209 -8.36508 0
      vertex -1.47209 -8.36508 8
    endloop
  endfacet
  facet normal 0.743144 -0.669131 0
    outer loop
      vertex -1.47209 -8.36508 0
      vertex -1.77984 -8.70687 8
      vertex -1.77984 -8.70687 0
    endloop
  endfacet
  facet normal -0.994522 -0.104529 0
    outer loop
      vertex 2.2 -10 0
      vertex 2.15192 -9.54259 8
      vertex 2.15192 -9.54259 0
    endloop
  endfacet
  facet normal -0.994522 -0.104529 0
    outer loop
      vertex 2.15192 -9.54259 8
      vertex 2.2 -10 0
      vertex 2.2 -10 8
    endloop
  endfacet
  facet normal -0.207912 0.978148 0
    outer loop
      vertex 0.679837 -12.0923 0
      vertex 0.229963 -12.1879 8
      vertex 0.679837 -12.0923 8
    endloop
  endfacet
  facet normal -0.207912 0.978148 0
    outer loop
      vertex 0.229963 -12.1879 8
      vertex 0.679837 -12.0923 0
      vertex 0.229963 -12.1879 0
    endloop
  endfacet
  facet normal -0.866026 0.499999 0
    outer loop
      vertex 1.77984 -11.2931 0
      vertex 2.0098 -10.8948 8
      vertex 2.0098 -10.8948 0
    endloop
  endfacet
  facet normal -0.866026 0.499999 0
    outer loop
      vertex 2.0098 -10.8948 8
      vertex 1.77984 -11.2931 0
      vertex 1.77984 -11.2931 8
    endloop
  endfacet
  facet normal -0.951056 0.309017 0
    outer loop
      vertex 2.0098 -10.8948 0
      vertex 2.15192 -10.4574 8
      vertex 2.15192 -10.4574 0
    endloop
  endfacet
  facet normal -0.951056 0.309017 0
    outer loop
      vertex 2.15192 -10.4574 8
      vertex 2.0098 -10.8948 0
      vertex 2.0098 -10.8948 8
    endloop
  endfacet
  facet normal -0.406736 0.913546 0
    outer loop
      vertex 1.1 -11.9053 0
      vertex 0.679837 -12.0923 8
      vertex 1.1 -11.9053 8
    endloop
  endfacet
  facet normal -0.406736 0.913546 0
    outer loop
      vertex 0.679837 -12.0923 8
      vertex 1.1 -11.9053 0
      vertex 0.679837 -12.0923 0
    endloop
  endfacet
  facet normal -0.587786 0.809016 0
    outer loop
      vertex 1.47209 -11.6349 0
      vertex 1.1 -11.9053 8
      vertex 1.47209 -11.6349 8
    endloop
  endfacet
  facet normal -0.587786 0.809016 0
    outer loop
      vertex 1.1 -11.9053 8
      vertex 1.47209 -11.6349 0
      vertex 1.1 -11.9053 0
    endloop
  endfacet
  facet normal 0.406736 0.913546 -0
    outer loop
      vertex -0.679837 -12.0923 0
      vertex -1.1 -11.9053 8
      vertex -0.679837 -12.0923 8
    endloop
  endfacet
  facet normal 0.406736 0.913546 0
    outer loop
      vertex -1.1 -11.9053 8
      vertex -0.679837 -12.0923 0
      vertex -1.1 -11.9053 0
    endloop
  endfacet
  facet normal 0.743144 0.669131 0
    outer loop
      vertex -1.47209 -11.6349 8
      vertex -1.77984 -11.2931 0
      vertex -1.77984 -11.2931 8
    endloop
  endfacet
  facet normal 0.743144 0.669131 0
    outer loop
      vertex -1.77984 -11.2931 0
      vertex -1.47209 -11.6349 8
      vertex -1.47209 -11.6349 0
    endloop
  endfacet
  facet normal 0.951056 0.309017 0
    outer loop
      vertex -2.0098 -10.8948 8
      vertex -2.15192 -10.4574 0
      vertex -2.15192 -10.4574 8
    endloop
  endfacet
  facet normal 0.951056 0.309017 0
    outer loop
      vertex -2.15192 -10.4574 0
      vertex -2.0098 -10.8948 8
      vertex -2.0098 -10.8948 0
    endloop
  endfacet
  facet normal 0.994522 -0.104529 0
    outer loop
      vertex -2.2 -10 8
      vertex -2.15192 -9.54259 0
      vertex -2.15192 -9.54259 8
    endloop
  endfacet
  facet normal 0.994522 -0.104529 0
    outer loop
      vertex -2.15192 -9.54259 0
      vertex -2.2 -10 8
      vertex -2.2 -10 0
    endloop
  endfacet
  facet normal -0.743144 0.669131 0
    outer loop
      vertex 1.47209 -11.6349 0
      vertex 1.77984 -11.2931 8
      vertex 1.77984 -11.2931 0
    endloop
  endfacet
  facet normal -0.743144 0.669131 0
    outer loop
      vertex 1.77984 -11.2931 8
      vertex 1.47209 -11.6349 0
      vertex 1.47209 -11.6349 8
    endloop
  endfacet
  facet normal 0.207912 0.978148 -0
    outer loop
      vertex -0.229963 -12.1879 0
      vertex -0.679837 -12.0923 8
      vertex -0.229963 -12.1879 8
    endloop
  endfacet
  facet normal 0.207912 0.978148 0
    outer loop
      vertex -0.679837 -12.0923 8
      vertex -0.229963 -12.1879 0
      vertex -0.679837 -12.0923 0
    endloop
  endfacet
  facet normal 0.866026 0.499999 0
    outer loop
      vertex -1.77984 -11.2931 8
      vertex -2.0098 -10.8948 0
      vertex -2.0098 -10.8948 8
    endloop
  endfacet
  facet normal 0.866026 0.499999 0
    outer loop
      vertex -2.0098 -10.8948 0
      vertex -1.77984 -11.2931 8
      vertex -1.77984 -11.2931 0
    endloop
  endfacet
  facet normal 0.587786 0.809016 -0
    outer loop
      vertex -1.1 -11.9053 0
      vertex -1.47209 -11.6349 8
      vertex -1.1 -11.9053 8
    endloop
  endfacet
  facet normal 0.587786 0.809016 0
    outer loop
      vertex -1.47209 -11.6349 8
      vertex -1.1 -11.9053 0
      vertex -1.47209 -11.6349 0
    endloop
  endfacet
endsolid OpenSCAD_Model
